<svg xmlns="http://www.w3.org/2000/svg" width="179" height="51" fill="none"><path fill="#7A71EB" d="M25.25 25.25C25.25 11.305 13.945 0 0 0v50.5c13.945 0 25.25-11.305 25.25-25.25Zm9.182 0c0 13.945 11.304 25.25 25.25 25.25V0c-13.946 0-25.25 11.305-25.25 25.25Z"/><path fill="#000" d="M165.845 42.96c-2.557 0-4.772-.562-6.647-1.687s-3.33-2.7-4.364-4.722c-1.023-2.023-1.534-4.386-1.534-7.09 0-2.705.511-5.075 1.534-7.109 1.034-2.034 2.489-3.613 4.364-4.738 1.875-1.125 4.09-1.688 6.647-1.688 2.557 0 4.773.563 6.648 1.688s3.324 2.704 4.347 4.738c1.034 2.034 1.551 4.404 1.551 7.108 0 2.705-.517 5.068-1.551 7.091-1.023 2.023-2.472 3.597-4.347 4.722-1.875 1.125-4.091 1.687-6.648 1.687Zm.034-4.943c1.387 0 2.546-.38 3.478-1.142.931-.773 1.625-1.807 2.079-3.102.466-1.296.699-2.739.699-4.33 0-1.602-.233-3.051-.699-4.346-.454-1.307-1.148-2.347-2.079-3.12-.932-.773-2.091-1.159-3.478-1.159-1.42 0-2.602.386-3.545 1.16-.932.772-1.631 1.812-2.097 3.119-.454 1.295-.682 2.744-.682 4.346 0 1.591.228 3.034.682 4.33.466 1.295 1.165 2.33 2.097 3.102.943.761 2.125 1.142 3.545 1.142Zm-23.97-6.579V16.267h6.171v26.182h-5.983v-4.654h-.273c-.591 1.466-1.563 2.665-2.915 3.597-1.341.932-2.994 1.398-4.96 1.398-1.716 0-3.233-.38-4.551-1.142-1.307-.773-2.33-1.892-3.068-3.358-.739-1.477-1.108-3.262-1.108-5.352V16.267h6.17v15.716c0 1.659.455 2.977 1.364 3.954.909.978 2.102 1.466 3.579 1.466a5.66 5.66 0 0 0 2.642-.664c.853-.444 1.551-1.103 2.097-1.978.557-.886.835-1.994.835-3.324ZM106.19 42.449V16.267h5.983v4.364h.273c.477-1.512 1.296-2.677 2.455-3.495 1.17-.83 2.505-1.244 4.005-1.244.341 0 .722.017 1.142.051.432.023.79.063 1.074.12v5.676c-.261-.091-.676-.17-1.244-.239-.557-.08-1.097-.12-1.619-.12-1.125 0-2.137.245-3.034.734a5.359 5.359 0 0 0-2.097 1.994c-.511.852-.767 1.835-.767 2.949v15.392h-6.171Zm-22.679 0h-11.83V7.539h12.07c3.465 0 6.442.7 8.93 2.097 2.5 1.387 4.421 3.381 5.762 5.983 1.341 2.603 2.012 5.716 2.012 9.341 0 3.637-.677 6.762-2.029 9.375-1.34 2.614-3.278 4.62-5.812 6.017-2.523 1.398-5.557 2.097-9.103 2.097Zm-5.505-5.472h5.199c2.431 0 4.46-.443 6.085-1.33 1.625-.897 2.846-2.232 3.665-4.005.818-1.784 1.227-4.011 1.227-6.682 0-2.67-.41-4.886-1.227-6.648-.819-1.772-2.029-3.096-3.631-3.971-1.591-.886-3.568-1.33-5.932-1.33h-5.386v23.966Z"/></svg>