<svg xmlns="http://www.w3.org/2000/svg" width="165" height="33" fill="none"><path fill="#A6A9CD" d="M26.64 32.16H0V5.52h15.21v4.09H4.08v18.47h18.48V17.25h4.08v14.91Z"/><path fill="#A6A9CD" d="M22.52 19.29c-5.32 0-9.65-4.33-9.65-9.65S17.2 0 22.52 0s9.65 4.33 9.65 9.65-4.33 9.65-9.65 9.65v-.01Zm0-15.21c-3.07 0-5.56 2.5-5.56 5.56 0 3.06 2.5 5.56 5.56 5.56 3.06 0 5.56-2.5 5.56-5.56 0-3.06-2.5-5.56-5.56-5.56Zm25.337 22.08h-4.652v-3.527h4.453c1.04 0 1.902-.184 2.59-.551.695-.367 1.215-.934 1.559-1.7.343-.773.515-1.757.515-2.953 0-1.203-.175-2.187-.527-2.953-.344-.765-.867-1.332-1.57-1.699-.696-.367-1.57-.55-2.625-.55h-4.465V8.698h4.722c1.774 0 3.305.356 4.594 1.066a7.286 7.286 0 0 1 3 3.012c.711 1.305 1.067 2.856 1.067 4.653 0 1.796-.352 3.347-1.055 4.652a7.36 7.36 0 0 1-3 3.023c-1.29.703-2.824 1.055-4.606 1.055ZM45.584 8.699V26.16H41.4V8.699h4.184Zm18.973 17.73c-1.32 0-2.473-.273-3.457-.82a5.742 5.742 0 0 1-2.274-2.297c-.539-.992-.808-2.152-.808-3.48 0-1.32.27-2.473.808-3.457a5.723 5.723 0 0 1 2.274-2.309c.984-.555 2.136-.832 3.457-.832 1.328 0 2.48.277 3.457.832a5.627 5.627 0 0 1 2.273 2.309c.54.984.809 2.137.809 3.457 0 1.328-.27 2.488-.809 3.48a5.646 5.646 0 0 1-2.273 2.297c-.977.547-2.13.82-3.457.82Zm0-3.175c.5 0 .93-.137 1.289-.41.36-.282.636-.676.832-1.184.203-.516.304-1.125.304-1.828 0-.719-.101-1.332-.304-1.84-.196-.508-.473-.898-.832-1.172-.36-.273-.79-.41-1.29-.41-.484 0-.91.137-1.277.41-.367.274-.648.664-.844 1.172-.195.508-.292 1.121-.292 1.84 0 .703.097 1.312.292 1.828.196.508.473.902.833 1.184a2.1 2.1 0 0 0 1.289.41Zm15.949-9.797v3.082h-8.473v-3.082h8.473Zm-6.528-3.258h4.067V22.07c0 .367.078.633.234.797.164.156.453.234.868.234.171 0 .394-.007.667-.023.282-.016.485-.031.61-.047l.234 3.059c-.32.062-.695.101-1.125.117-.43.023-.855.035-1.277.035-1.445 0-2.52-.3-3.223-.902-.703-.602-1.055-1.512-1.055-2.73V10.198Zm15.223 16.219c-1.508 0-2.804-.227-3.89-.68-1.079-.46-1.91-1.137-2.497-2.027-.578-.899-.874-2.004-.89-3.317h3.996c.031.555.18 1.028.445 1.418.274.39.653.692 1.137.903.484.203 1.05.304 1.7.304.585 0 1.093-.078 1.523-.234.43-.164.761-.387.996-.668.234-.281.351-.613.351-.996 0-.328-.105-.613-.316-.856-.203-.242-.52-.453-.95-.632-.429-.188-.98-.352-1.652-.493l-1.816-.386c-1.617-.352-2.86-.93-3.727-1.735-.859-.812-1.289-1.867-1.289-3.164 0-1.078.29-2.023.867-2.836.579-.812 1.38-1.445 2.403-1.898 1.031-.453 2.219-.68 3.562-.68 1.375 0 2.563.23 3.563.692 1.008.453 1.789 1.097 2.344 1.933.554.836.843 1.824.867 2.965H91.99c-.054-.68-.328-1.215-.82-1.605-.492-.391-1.156-.586-1.992-.586-.531 0-.996.078-1.395.234-.39.149-.691.36-.902.633-.211.265-.317.57-.317.914 0 .336.102.625.305.867.203.235.504.438.903.61a9.03 9.03 0 0 0 1.5.433l1.535.328c.906.196 1.699.442 2.379.739.687.296 1.257.656 1.71 1.078a4.02 4.02 0 0 1 1.02 1.441c.227.547.34 1.164.34 1.852 0 1.132-.281 2.109-.844 2.93-.562.812-1.371 1.437-2.426 1.874-1.047.43-2.308.645-3.785.645Zm21.598 4.64h-4.067v-6.867h-.058a3.88 3.88 0 0 1-.797 1.149 3.535 3.535 0 0 1-1.184.773c-.461.188-.992.281-1.593.281-1.032 0-1.95-.261-2.754-.785-.797-.523-1.422-1.273-1.875-2.25-.453-.984-.68-2.168-.68-3.55 0-1.391.234-2.575.703-3.551.469-.977 1.102-1.723 1.899-2.239a4.757 4.757 0 0 1 2.671-.785c.61 0 1.145.094 1.606.281.469.18.871.43 1.207.75.336.32.609.684.82 1.09h.082v-1.898h4.02v17.601Zm-6.457-7.875c.515 0 .961-.136 1.336-.41.383-.281.676-.675.879-1.183.211-.508.316-1.102.316-1.782 0-.687-.105-1.28-.316-1.78-.203-.509-.496-.9-.879-1.173-.375-.273-.821-.41-1.336-.41-.5 0-.934.137-1.301.41-.359.274-.637.66-.832 1.16-.188.5-.281 1.098-.281 1.793 0 .688.093 1.286.281 1.793.195.508.473.899.832 1.172.367.274.801.41 1.301.41Zm13.301 3.2c-.907 0-1.688-.196-2.344-.586-.656-.399-1.164-.965-1.524-1.7-.351-.734-.527-1.605-.527-2.613v-8.027h4.066v7.219c0 .726.18 1.293.54 1.699.367.398.875.598 1.523.598.437 0 .816-.09 1.137-.27.32-.188.57-.465.75-.832.179-.367.269-.816.269-1.348v-7.066h4.067V26.16h-3.926l-.035-3.316h.41c-.36 1.07-.895 1.93-1.606 2.578-.703.64-1.636.96-2.8.96Zm14.132 0c-.828 0-1.566-.137-2.214-.41a3.41 3.41 0 0 1-1.512-1.254c-.367-.555-.551-1.254-.551-2.098 0-.711.125-1.309.375-1.793a3.175 3.175 0 0 1 1.055-1.172 5.004 5.004 0 0 1 1.535-.691 9.982 9.982 0 0 1 1.875-.328 25.871 25.871 0 0 0 1.781-.2c.453-.078.777-.187.973-.328a.684.684 0 0 0 .304-.598v-.058c0-.273-.07-.508-.21-.703a1.298 1.298 0 0 0-.61-.445 2.362 2.362 0 0 0-.926-.165 2.69 2.69 0 0 0-.984.165 1.61 1.61 0 0 0-1.02 1.195l-3.726-.211c.109-.828.402-1.543.879-2.145.484-.609 1.14-1.078 1.969-1.406.828-.336 1.82-.504 2.976-.504.86 0 1.637.098 2.332.293.703.196 1.305.48 1.805.856.5.367.883.82 1.148 1.359.266.531.399 1.14.399 1.828v8.59h-3.891v-1.781h-.082a3.666 3.666 0 0 1-.879 1.113 3.42 3.42 0 0 1-1.219.668 5.17 5.17 0 0 1-1.582.223Zm1.231-2.672c.453 0 .863-.086 1.23-.258a2.17 2.17 0 0 0 .868-.738c.218-.32.328-.688.328-1.102V20.43a3.18 3.18 0 0 1-.411.164c-.156.046-.335.09-.539.128a52.628 52.628 0 0 1-1.277.234 3.752 3.752 0 0 0-.984.27 1.663 1.663 0 0 0-.645.493 1.11 1.11 0 0 0-.234.714c0 .274.07.508.211.704.148.187.343.332.586.433.25.094.539.14.867.14Zm8.883 2.449V13.457h3.937v2.273h.082c.227-.82.594-1.418 1.102-1.793.515-.382 1.164-.574 1.945-.574.203 0 .399.008.586.024.188.007.367.023.539.046v3.434a5.994 5.994 0 0 0-.726-.07 11.833 11.833 0 0 0-.879-.035c-.493 0-.93.109-1.313.328-.375.21-.672.52-.891.925-.21.407-.316.887-.316 1.442v6.703h-4.066Zm15.375.27c-1.313 0-2.457-.274-3.434-.82a5.664 5.664 0 0 1-2.25-2.31c-.531-.992-.797-2.148-.797-3.468 0-1.297.266-2.442.797-3.434a5.79 5.79 0 0 1 2.227-2.32c.953-.563 2.062-.844 3.328-.844.929 0 1.777.152 2.543.457.765.297 1.429.73 1.992 1.301a5.733 5.733 0 0 1 1.301 2.05c.304.798.457 1.7.457 2.708v1.055h-11.274v-2.391h9.364l-1.875.515c0-.562-.098-1.046-.293-1.453a2.083 2.083 0 0 0-.821-.949c-.359-.219-.8-.328-1.324-.328-.516 0-.957.113-1.324.34a2.14 2.14 0 0 0-.844.937c-.187.399-.281.872-.281 1.418v1.746c0 .61.105 1.13.316 1.559.211.422.512.742.903.961.398.219.863.328 1.394.328.383 0 .727-.05 1.031-.152a2.23 2.23 0 0 0 .786-.457c.218-.203.378-.446.48-.727l3.633.27a4.505 4.505 0 0 1-1.102 2.097c-.554.594-1.254 1.063-2.097 1.407-.844.336-1.789.504-2.836.504Z"/></svg>