<svg xmlns="http://www.w3.org/2000/svg" width="174" height="42" fill="none"><path fill="#A6A9CD" fill-rule="evenodd" d="M20.684.962c11.262 0 20.392 9.13 20.392 20.391 0 11.262-9.13 20.392-20.392 20.392-11.262 0-20.391-9.13-20.391-20.392C.293 10.091 9.423.962 20.684.962Zm19.609 20.391c0-10.83-8.78-19.608-19.609-19.608-.873 0-1.733.057-2.577.167a18.976 18.976 0 0 1 1.654-.072c10.348 0 18.737 8.39 18.737 18.738 0 10.348-8.39 18.737-18.737 18.737-9.797 0-17.838-7.52-18.667-17.101.45 10.43 9.049 18.748 19.59 18.748 10.83 0 19.609-8.78 19.609-19.609Zm-2.578-.776c0-9.916-8.038-17.954-17.954-17.954-.805 0-1.598.053-2.375.156.478-.04.962-.061 1.451-.061 9.435 0 17.083 7.648 17.083 17.083 0 9.434-7.648 17.082-17.083 17.082-8.92 0-16.244-6.837-17.015-15.557.392 9.569 8.273 17.206 17.939 17.206 9.916 0 17.954-8.039 17.954-17.954ZM18.837 3.502c9.003 0 16.3 7.297 16.3 16.3 0 9.002-7.297 16.3-16.3 16.3-8.793 0-15.96-6.964-16.288-15.677.707 7.864 7.316 14.028 15.365 14.028 8.52 0 15.427-6.907 15.427-15.427S26.434 3.597 17.914 3.597c-.441 0-.878.019-1.309.055.73-.1 1.475-.151 2.232-.151ZM32.56 19.025c0-8.088-6.557-14.645-14.645-14.645-.684 0-1.356.047-2.015.137.36-.028.723-.042 1.09-.042 7.607 0 13.773 6.166 13.773 13.773 0 7.607-6.166 13.773-13.773 13.773-7.16 0-13.043-5.463-13.71-12.447.288 7.833 6.73 14.096 14.635 14.096 8.088 0 14.645-6.557 14.645-14.645ZM16.989 5.258c7.175 0 12.99 5.816 12.99 12.99 0 7.175-5.815 12.99-12.99 12.99-7.033 0-12.76-5.588-12.984-12.567.603 6.13 5.772 10.92 12.06 10.92 6.694 0 12.12-5.427 12.12-12.12S22.759 5.352 16.065 5.352c-.306 0-.61.012-.912.034.6-.085 1.213-.128 1.836-.128ZM27.402 17.47c0-6.26-5.075-11.336-11.336-11.336-.572 0-1.133.042-1.682.124.25-.018.503-.027.758-.027 5.78 0 10.464 4.685 10.464 10.464 0 5.779-4.685 10.463-10.464 10.463-5.415 0-9.87-4.113-10.409-9.386.16 6.122 5.173 11.035 11.333 11.035 6.26 0 11.336-5.076 11.336-11.337ZM15.142 7.015c5.347 0 9.681 4.334 9.681 9.68 0 5.347-4.334 9.682-9.68 9.682-5.28 0-9.571-4.225-9.68-9.478a8.81 8.81 0 0 0 17.565-.98 8.81 8.81 0 0 0-9.363-8.792 9.755 9.755 0 0 1 1.477-.112Zm7.104 8.904a8.027 8.027 0 0 0-9.335-7.921 7.155 7.155 0 1 1-6.719 8.024 8.027 8.027 0 0 0 16.054-.103ZM13.294 8.77a6.373 6.373 0 1 1-6.372 6.347 5.501 5.501 0 1 0 5.244-6.248c.366-.065.743-.1 1.128-.1Zm3.794 5.595a4.717 4.717 0 1 0-9.434 0 4.717 4.717 0 0 0 9.434 0Z" clip-rule="evenodd"/><path fill="#A6A9CD" d="M50.822 29.853v-17.46h2.636v15.175h8.098v2.285H50.822Zm18.468.281c-1.203 0-2.257-.277-3.164-.832-.898-.554-1.597-1.324-2.097-2.308-.5-.992-.75-2.14-.75-3.445 0-1.313.25-2.465.75-3.457.5-1 1.199-1.778 2.097-2.332.907-.555 1.961-.833 3.164-.833 1.204 0 2.254.278 3.153.832.906.555 1.61 1.333 2.11 2.333.5.992.75 2.144.75 3.457 0 1.304-.25 2.453-.75 3.445a5.637 5.637 0 0 1-2.11 2.308c-.899.555-1.95.832-3.153.832Zm0-2.156c.75 0 1.38-.191 1.887-.574.516-.383.906-.906 1.172-1.57.266-.672.399-1.434.399-2.285 0-.868-.133-1.633-.399-2.297-.266-.672-.656-1.2-1.172-1.582-.508-.39-1.137-.586-1.887-.586-.742 0-1.37.191-1.886.574-.516.383-.906.91-1.172 1.582-.258.672-.387 1.441-.387 2.309 0 .851.13 1.613.387 2.285.266.664.656 1.187 1.172 1.57.515.383 1.144.574 1.886.574Zm13.899 2.156c-1.203 0-2.258-.277-3.164-.832-.899-.554-1.598-1.324-2.098-2.308-.5-.992-.75-2.14-.75-3.445 0-1.313.25-2.465.75-3.457.5-1 1.2-1.778 2.098-2.332.906-.555 1.96-.833 3.164-.833 1.203 0 2.254.278 3.152.832.907.555 1.61 1.333 2.11 2.333.5.992.75 2.144.75 3.457 0 1.304-.25 2.453-.75 3.445-.5.984-1.203 1.754-2.11 2.308-.898.555-1.949.832-3.152.832Zm0-2.156c.75 0 1.379-.191 1.887-.574.515-.383.906-.906 1.172-1.57.265-.672.398-1.434.398-2.285 0-.868-.133-1.633-.398-2.297-.266-.672-.657-1.2-1.172-1.582-.508-.39-1.137-.586-1.887-.586-.742 0-1.371.191-1.887.574-.515.383-.906.91-1.172 1.582-.257.672-.386 1.441-.386 2.309 0 .851.129 1.613.386 2.285.266.664.657 1.187 1.172 1.57.516.383 1.145.574 1.887.574Zm8.496 6.774V17.15h2.461v1.946h.117c.211-.375.485-.723.82-1.044a4.005 4.005 0 0 1 1.254-.796c.493-.204 1.07-.305 1.735-.305 1.062 0 1.996.27 2.801.808.812.532 1.449 1.29 1.91 2.274.461.984.691 2.144.691 3.48 0 1.336-.23 2.5-.691 3.493-.453.984-1.086 1.746-1.899 2.285-.804.539-1.746.808-2.824.808-.648 0-1.215-.101-1.7-.304a3.928 3.928 0 0 1-1.241-.809 5.115 5.115 0 0 1-.832-1.078h-.082v6.844h-2.52Zm5.848-6.809c.703 0 1.304-.18 1.804-.539.508-.367.895-.883 1.161-1.547.273-.664.41-1.449.41-2.355 0-.899-.137-1.676-.41-2.332-.266-.657-.653-1.164-1.16-1.524-.5-.367-1.102-.55-1.805-.55-.719 0-1.336.183-1.852.55-.516.367-.91.883-1.183 1.547-.266.656-.399 1.426-.399 2.309 0 .89.137 1.668.41 2.332.274.664.668 1.183 1.184 1.558.516.367 1.129.551 1.84.551Zm8.625 1.91v-17.46h3.785l3.867 10.136c.109.29.234.652.375 1.09.141.437.285.902.434 1.394.156.493.3.97.433 1.43.141.453.258.848.352 1.184h-.598l.34-1.16c.133-.461.273-.938.422-1.43l.445-1.406c.149-.446.274-.813.375-1.102l3.809-10.137h3.808v17.461h-2.613v-9.457a111.742 111.742 0 0 1 .047-2.8c.016-.532.027-1.067.035-1.606.016-.54.027-1.059.035-1.559h.27c-.172.57-.352 1.145-.539 1.723l-.539 1.664c-.172.531-.336 1.02-.493 1.465a29.02 29.02 0 0 1-.398 1.113l-3.633 9.457h-2.203l-3.668-9.457a64.5 64.5 0 0 1-.41-1.101l-.492-1.453c-.172-.532-.356-1.086-.551-1.665-.187-.585-.379-1.168-.574-1.746h.34c.015.477.027.985.035 1.524.015.531.027 1.066.035 1.605a110.563 110.563 0 0 1 .047 2.836v9.457h-2.578Zm26.578.281c-1.258 0-2.34-.277-3.246-.832a5.659 5.659 0 0 1-2.086-2.32c-.485-.992-.727-2.133-.727-3.422 0-1.297.246-2.441.739-3.433.492-1 1.179-1.781 2.062-2.344.891-.57 1.918-.856 3.082-.856.82 0 1.582.141 2.285.422a5.11 5.11 0 0 1 1.84 1.254c.531.555.945 1.239 1.242 2.051.297.805.446 1.734.446 2.79v.784h-10.442V22.33h9.129l-1.137.598c0-.782-.132-1.465-.398-2.051-.266-.586-.649-1.04-1.149-1.36-.492-.328-1.093-.492-1.804-.492-.696 0-1.297.164-1.805.492-.508.32-.902.766-1.184 1.336-.273.57-.41 1.223-.41 1.957v1.172c0 .828.145 1.547.434 2.156a3.21 3.21 0 0 0 1.242 1.407c.539.328 1.176.492 1.91.492.516 0 .977-.074 1.383-.223a2.734 2.734 0 0 0 1.641-1.699l2.39.246a4.331 4.331 0 0 1-1.019 1.969 5.177 5.177 0 0 1-1.887 1.324c-.758.32-1.601.48-2.531.48Zm12.879-.035c-1.063 0-2.004-.27-2.824-.808-.813-.54-1.45-1.301-1.911-2.285-.453-.993-.679-2.157-.679-3.493 0-1.336.23-2.496.691-3.48.461-.984 1.098-1.742 1.91-2.274.821-.538 1.758-.808 2.813-.808.656 0 1.226.101 1.711.305.492.203.906.468 1.242.796.344.32.621.669.832 1.044h.07v-6.704h2.531v17.461h-2.472v-1.957h-.106a4.66 4.66 0 0 1-.855 1.09 3.934 3.934 0 0 1-1.242.809c-.485.203-1.055.304-1.711.304Zm.539-2.156c.711 0 1.324-.184 1.84-.55.515-.376.91-.895 1.183-1.56.274-.663.41-1.44.41-2.331 0-.883-.136-1.653-.41-2.309-.273-.664-.668-1.18-1.183-1.547-.508-.367-1.121-.55-1.84-.55-.703 0-1.309.183-1.817.55-.507.36-.898.867-1.171 1.524-.266.656-.399 1.433-.399 2.332 0 .906.133 1.691.399 2.355.273.664.664 1.18 1.171 1.547.508.36 1.114.54 1.817.54Zm8.929 1.91V17.15h2.52v12.703h-2.52Zm1.254-14.765c-.437 0-.812-.149-1.125-.446a1.452 1.452 0 0 1-.457-1.078c0-.43.153-.789.457-1.078a1.577 1.577 0 0 1 1.125-.445c.446 0 .821.148 1.125.445.313.29.469.648.469 1.078 0 .422-.156.781-.469 1.078a1.548 1.548 0 0 1-1.125.446Zm8.098 15c-.828 0-1.57-.145-2.227-.434a3.562 3.562 0 0 1-1.558-1.289c-.383-.578-.574-1.285-.574-2.121 0-.727.136-1.32.41-1.781a3.16 3.16 0 0 1 1.125-1.102 5.705 5.705 0 0 1 1.605-.61 15.4 15.4 0 0 1 1.828-.316c.774-.101 1.391-.18 1.852-.234.469-.063.809-.16 1.02-.293.21-.133.316-.348.316-.645v-.093c0-.438-.098-.817-.293-1.137a1.871 1.871 0 0 0-.856-.75c-.367-.18-.82-.27-1.359-.27-.547 0-1.023.086-1.43.258a2.648 2.648 0 0 0-.972.692 2.153 2.153 0 0 0-.481.949l-2.425-.281c.156-.79.476-1.457.96-2.004a4.68 4.68 0 0 1 1.852-1.242c.75-.29 1.582-.434 2.496-.434.656 0 1.285.082 1.887.246a4.837 4.837 0 0 1 1.605.762c.469.343.836.789 1.102 1.336.273.547.41 1.207.41 1.98v8.578h-2.461v-1.77h-.082a3.607 3.607 0 0 1-.738.962c-.313.304-.715.554-1.207.75-.492.195-1.094.293-1.805.293Zm.527-2.016c.719 0 1.321-.133 1.805-.398.484-.274.848-.63 1.09-1.067.25-.445.375-.922.375-1.43v-1.546c-.086.078-.242.152-.469.222-.219.063-.48.121-.785.176-.297.055-.605.105-.926.152l-.879.13a5.93 5.93 0 0 0-1.289.316 2.32 2.32 0 0 0-.961.61c-.234.265-.351.612-.351 1.042 0 .383.101.707.304.973.204.265.481.469.832.61.36.14.778.21 1.254.21Z"/></svg>