<svg xmlns="http://www.w3.org/2000/svg" width="180" height="40" fill="none"><path fill="#A6A9CD" d="M1.43 28.5V11.04h6.843c1.32 0 2.454.241 3.399.726.945.484 1.668 1.16 2.168 2.027.508.867.762 1.883.762 3.047 0 1.164-.258 2.18-.774 3.047-.508.867-1.238 1.543-2.191 2.027-.953.477-2.094.715-3.422.715h-4.63v-2.965h4.278c.68 0 1.25-.117 1.711-.352a2.462 2.462 0 0 0 1.067-.984c.242-.43.363-.926.363-1.488 0-.57-.121-1.063-.363-1.477a2.462 2.462 0 0 0-1.067-.984c-.46-.234-1.035-.352-1.722-.352H5.016V28.5H1.43Zm18.726-17.46V28.5h-3.48V11.04h3.48Zm7.102 17.683c-.89 0-1.668-.192-2.332-.575-.664-.39-1.18-.953-1.547-1.687-.36-.734-.54-1.617-.54-2.648v-8.016h3.481v7.394c0 .82.203 1.454.61 1.899.406.445.976.668 1.71.668.485 0 .91-.102 1.278-.305.375-.21.668-.52.879-.926.21-.414.316-.925.316-1.535v-7.195h3.48V28.5H31.23l-.023-3.246h.422c-.375 1.094-.922 1.945-1.64 2.555-.712.609-1.622.914-2.731.914Zm16.887-12.926v2.707h-7.97v-2.707h7.97Zm-5.977-3.258h3.469v12.129c0 .422.09.723.27.902.179.172.491.258.937.258.172 0 .383-.008.633-.023.257-.016.457-.028.597-.035l.223 2.671a7.03 7.03 0 0 1-1.008.106c-.375.023-.746.035-1.113.035-1.344 0-2.348-.289-3.012-.867-.664-.578-.996-1.445-.996-2.602V12.54Zm13.547 16.23c-1.274 0-2.387-.273-3.34-.82a5.73 5.73 0 0 1-2.215-2.308c-.523-.993-.785-2.145-.785-3.457 0-1.32.262-2.477.785-3.47a5.634 5.634 0 0 1 2.215-2.308c.953-.554 2.066-.832 3.34-.832 1.289 0 2.406.278 3.351.832a5.656 5.656 0 0 1 2.203 2.309c.524.992.786 2.148.786 3.469 0 1.312-.262 2.464-.785 3.457a5.752 5.752 0 0 1-2.204 2.308c-.945.547-2.062.82-3.351.82Zm0-2.788c.594 0 1.097-.157 1.512-.47.421-.32.746-.765.972-1.335.227-.57.34-1.238.34-2.004s-.113-1.434-.34-2.004c-.226-.57-.55-1.012-.972-1.324-.414-.32-.918-.48-1.512-.48-.586 0-1.09.16-1.512.48-.422.312-.746.754-.973 1.324-.218.563-.328 1.23-.328 2.004 0 .765.11 1.433.328 2.004.227.57.551 1.015.973 1.336.422.312.926.468 1.512.468Z"/><path fill="#A6A9CD" fill-rule="evenodd" d="M87 0c11.045 0 20 8.954 20 20s-8.955 20-20 20c-11.046 0-20-8.954-20-20S75.954 0 87 0Zm-.723 1.497c-2.282.32-4.454 2.154-6.14 5.22-.49.89-.931 1.872-1.316 2.933 2.293-.576 4.812-.916 7.456-.968V1.497Zm-9.146 8.634a23.095 23.095 0 0 1 1.739-4.11c.835-1.52 1.828-2.833 2.946-3.841A18.593 18.593 0 0 0 69.18 14.816c1.008-1.118 2.32-2.11 3.84-2.946a23.09 23.09 0 0 1 4.11-1.74Zm-.48 1.69c-.577 2.293-.917 4.812-.97 7.456h-7.184c.32-2.282 2.154-4.454 5.22-6.14.89-.49 1.872-.931 2.933-1.316Zm.477 7.456c.06-2.885.475-5.594 1.162-7.987 2.393-.687 5.102-1.102 7.987-1.162v3.123a10.64 10.64 0 0 1-6.027 6.026h-3.122Zm-1.446 1.446h-7.186c.322 2.282 2.155 4.454 5.221 6.14.89.49 1.872.931 2.933 1.316-.576-2.293-.916-4.812-.968-7.456Zm2.608 7.987c-.687-2.393-1.102-5.102-1.162-7.987h3.122a10.64 10.64 0 0 1 6.027 6.026v3.123c-2.885-.06-5.594-.475-7.987-1.162Zm-1.16 1.16a23.09 23.09 0 0 1-4.11-1.74c-1.52-.836-2.832-1.828-3.84-2.946A18.593 18.593 0 0 0 81.816 37.82c-1.118-1.008-2.11-2.32-2.947-3.84a23.093 23.093 0 0 1-1.738-4.11Zm9.147 8.633c-2.282-.32-4.454-2.154-6.14-5.22-.49-.89-.931-1.873-1.316-2.933 2.293.576 4.812.916 7.456.968v7.185Zm5.907-.683c1.118-1.008 2.11-2.32 2.946-3.84a23.086 23.086 0 0 0 1.74-4.11 23.088 23.088 0 0 0 4.109-1.74c1.52-.836 2.833-1.828 3.841-2.946A18.594 18.594 0 0 1 92.184 37.82Zm2.995-7.47a20.882 20.882 0 0 1-1.316 2.933c-1.686 3.066-3.859 4.9-6.14 5.22v-7.185c2.644-.052 5.163-.392 7.456-.968Zm2.17-2.171a20.779 20.779 0 0 0 2.933-1.315c3.067-1.687 4.9-3.86 5.221-6.141h-7.185c-.053 2.644-.393 5.163-.969 7.456Zm-.477-7.456c-.06 2.885-.475 5.594-1.163 7.987-2.392.687-5.101 1.102-7.986 1.162v-3.12a10.641 10.641 0 0 1 6.028-6.03h3.121Zm1.446-1.446h7.185c-.321-2.282-2.154-4.454-5.221-6.14a20.742 20.742 0 0 0-2.933-1.316c.576 2.293.916 4.812.97 7.456ZM95.71 11.29c.688 2.393 1.103 5.102 1.163 7.987h-3.121a10.641 10.641 0 0 1-6.028-6.029v-3.12c2.885.06 5.594.475 7.986 1.162Zm1.16-1.16a23.088 23.088 0 0 1 4.11 1.74c1.52.836 2.833 1.828 3.841 2.946A18.594 18.594 0 0 0 92.184 2.18c1.118 1.008 2.11 2.32 2.946 3.84a23.088 23.088 0 0 1 1.74 4.11Zm-9.146-8.633c2.281.32 4.454 2.154 6.14 5.22.49.89.931 1.872 1.316 2.933-2.293-.576-4.813-.916-7.456-.968V1.497Z" clip-rule="evenodd"/><path fill="#A6A9CD" d="M122.582 28.5h-4.523v-3.059h4.336c1.156 0 2.113-.21 2.871-.632.765-.422 1.336-1.055 1.711-1.899.383-.844.574-1.894.574-3.152 0-1.258-.191-2.305-.574-3.14-.375-.845-.942-1.473-1.699-1.887-.758-.422-1.707-.633-2.848-.633h-4.453v-3.059h4.664c1.758 0 3.269.352 4.535 1.055a7.193 7.193 0 0 1 2.941 3.011c.688 1.305 1.032 2.856 1.032 4.653 0 1.805-.344 3.36-1.032 4.664a7.24 7.24 0 0 1-2.953 3.023c-1.273.703-2.8 1.055-4.582 1.055Zm-2.566-17.46V28.5h-3.586V11.04h3.586Zm19.16 17.73c-1.289 0-2.406-.274-3.352-.82a5.677 5.677 0 0 1-2.191-2.31c-.516-.992-.773-2.144-.773-3.456 0-1.297.257-2.442.773-3.434a5.888 5.888 0 0 1 2.168-2.332c.93-.563 2.008-.844 3.234-.844.883 0 1.696.149 2.438.446.75.289 1.398.714 1.945 1.277a5.896 5.896 0 0 1 1.278 2.05c.304.805.457 1.72.457 2.743v.95h-10.969v-2.204h9.281l-1.594.55c0-.648-.109-1.21-.328-1.687a2.48 2.48 0 0 0-.949-1.101c-.414-.258-.918-.387-1.512-.387-.586 0-1.09.133-1.511.398a2.554 2.554 0 0 0-.961 1.09c-.227.461-.34 1-.34 1.617v1.536c0 .687.121 1.28.363 1.78a2.65 2.65 0 0 0 1.031 1.137c.453.258.985.387 1.594.387.438 0 .828-.062 1.172-.187s.633-.305.867-.54c.242-.234.418-.511.527-.831l3.165.258a4.535 4.535 0 0 1-1.079 2.05c-.531.586-1.203 1.043-2.015 1.371-.805.328-1.711.492-2.719.492Zm11.566-17.73V28.5h-3.48V11.04h3.48Zm7.102 17.683c-.891 0-1.668-.192-2.332-.575-.664-.39-1.18-.953-1.547-1.687-.359-.734-.539-1.617-.539-2.648v-8.016h3.48v7.394c0 .82.204 1.454.61 1.899.406.445.976.668 1.711.668.484 0 .91-.102 1.277-.305.375-.21.668-.52.879-.926.211-.414.316-.925.316-1.535v-7.195h3.481V28.5h-3.363l-.024-3.246h.422c-.375 1.094-.922 1.945-1.641 2.555-.71.609-1.621.914-2.73.914Zm8.988-.223 5.028-7.547-.036 2.063-4.71-7.22h3.785l1.136 1.888c.344.593.661 1.175.95 1.746.289.562.582 1.117.879 1.664h-1.208a56.06 56.06 0 0 0 .891-1.664c.289-.57.609-1.153.961-1.746l1.172-1.887h3.715l-4.805 7.23.035-2.05 4.969 7.523h-3.785l-1.336-2.156a43.288 43.288 0 0 1-.961-1.7 64.508 64.508 0 0 0-.879-1.652h1.125c-.297.54-.59 1.09-.879 1.652a25.427 25.427 0 0 1-.949 1.7l-1.336 2.156h-3.762Z"/></svg>