<svg xmlns="http://www.w3.org/2000/svg" width="124" height="29" fill="none"><path fill="#A6A9CD" d="M.41 13.077a13.69 13.69 0 0 1 26.57 0h-1.2a9.69 9.69 0 0 0-5.67 1.73c-.096.07-.196.133-.3.19h-.14a2.856 2.856 0 0 1-.3-.19 10.17 10.17 0 0 0-11.35 0c-.096.07-.196.133-.3.19h-.14a2.856 2.856 0 0 1-.3-.19 9.69 9.69 0 0 0-5.67-1.73H.41Zm23.21 6.27a3.37 3.37 0 0 1 2.16-.71h1.61v-3.21h-1.61a6.38 6.38 0 0 0-3.83 1.22 3.64 3.64 0 0 1-4.32 0 6.8 6.8 0 0 0-7.77 0 3.64 3.64 0 0 1-4.32 0 6.38 6.38 0 0 0-3.88-1.22H0v3.21h1.61a3.37 3.37 0 0 1 2.16.71 6.78 6.78 0 0 0 7.76 0 3.39 3.39 0 0 1 2.16-.71 3.35 3.35 0 0 1 2.16.71 6.8 6.8 0 0 0 7.77 0Zm0 5.74a3.37 3.37 0 0 1 2.16-.71h1.61v-3.21h-1.61a6.38 6.38 0 0 0-3.83 1.22 3.64 3.64 0 0 1-4.32 0 6.8 6.8 0 0 0-7.77 0 3.64 3.64 0 0 1-4.32 0 6.38 6.38 0 0 0-3.88-1.22H0v3.21h1.61a3.37 3.37 0 0 1 2.16.71 6.78 6.78 0 0 0 7.76 0 3.39 3.39 0 0 1 2.16-.71 3.35 3.35 0 0 1 2.16.71 6.8 6.8 0 0 0 7.77 0Zm19.856-1.829c-1.508 0-2.805-.227-3.89-.68-1.079-.46-1.911-1.137-2.497-2.027-.578-.899-.875-2.004-.89-3.317h3.996c.03.555.18 1.028.445 1.418.273.391.652.692 1.137.903.484.203 1.05.304 1.699.304.586 0 1.094-.078 1.523-.234.43-.164.762-.387.996-.668.235-.281.352-.613.352-.996a1.26 1.26 0 0 0-.316-.855c-.204-.243-.52-.454-.95-.633-.43-.188-.98-.352-1.652-.492l-1.817-.387c-1.617-.352-2.859-.93-3.726-1.735-.86-.812-1.29-1.867-1.29-3.164 0-1.078.29-2.023.868-2.836.578-.812 1.379-1.445 2.403-1.898 1.03-.453 2.218-.68 3.562-.68 1.375 0 2.563.23 3.563.692 1.007.453 1.789 1.097 2.343 1.933.555.836.844 1.824.867 2.965h-3.937c-.055-.68-.328-1.215-.82-1.605-.493-.391-1.157-.586-1.993-.586-.53 0-.996.078-1.394.234-.39.149-.691.36-.902.633a1.43 1.43 0 0 0-.317.914c0 .336.102.625.305.867.203.235.504.438.902.61.406.164.906.308 1.5.433l1.535.328c.906.196 1.7.442 2.38.739.687.296 1.257.656 1.71 1.078a4.02 4.02 0 0 1 1.02 1.441c.226.547.34 1.164.34 1.852 0 1.132-.282 2.109-.844 2.93-.563.812-1.371 1.437-2.426 1.874-1.047.43-2.309.645-3.785.645Zm15.07.012c-1.312 0-2.457-.274-3.434-.82a5.668 5.668 0 0 1-2.25-2.31c-.53-.992-.796-2.148-.796-3.468 0-1.297.265-2.442.796-3.434a5.79 5.79 0 0 1 2.227-2.32c.953-.563 2.063-.844 3.328-.844.93 0 1.778.153 2.543.457.766.297 1.43.73 1.992 1.301a5.721 5.721 0 0 1 1.301 2.05c.305.798.457 1.7.457 2.708v1.055H53.437v-2.391H62.8l-1.875.516c0-.563-.098-1.047-.293-1.454a2.083 2.083 0 0 0-.82-.949c-.36-.219-.801-.328-1.325-.328-.515 0-.956.113-1.324.34a2.142 2.142 0 0 0-.843.937c-.188.399-.282.871-.282 1.418v1.746c0 .61.106 1.13.317 1.56.21.42.512.741.902.96.399.219.863.328 1.395.328.382 0 .726-.05 1.03-.152a2.23 2.23 0 0 0 .786-.457c.219-.203.379-.446.48-.727l3.633.27a4.505 4.505 0 0 1-1.101 2.097c-.555.594-1.254 1.063-2.098 1.407-.844.336-1.789.504-2.836.504Zm12.012-.047c-.828 0-1.567-.137-2.215-.41a3.412 3.412 0 0 1-1.512-1.254c-.367-.555-.55-1.254-.55-2.098 0-.711.124-1.309.374-1.793.258-.484.61-.875 1.055-1.172a5.006 5.006 0 0 1 1.535-.691 9.971 9.971 0 0 1 1.875-.328 25.821 25.821 0 0 0 1.782-.2c.453-.078.777-.187.972-.328a.684.684 0 0 0 .305-.597v-.059c0-.273-.07-.508-.211-.703a1.296 1.296 0 0 0-.61-.445 2.365 2.365 0 0 0-.925-.165 2.7 2.7 0 0 0-.985.165 1.608 1.608 0 0 0-1.019 1.195l-3.727-.211c.11-.828.403-1.543.88-2.145.484-.609 1.14-1.078 1.968-1.406.828-.336 1.82-.504 2.977-.504.859 0 1.636.098 2.332.293.703.195 1.304.48 1.804.856.5.367.883.82 1.149 1.359.265.531.398 1.14.398 1.828V23h-3.89v-1.781h-.082a3.675 3.675 0 0 1-.88 1.113c-.343.297-.75.52-1.218.668a5.17 5.17 0 0 1-1.582.223Zm1.23-2.672c.454 0 .864-.086 1.23-.258.368-.18.657-.426.868-.738.219-.32.328-.688.328-1.102V17.27c-.11.054-.246.109-.41.164a5.53 5.53 0 0 1-.54.128 53.664 53.664 0 0 1-1.277.234 3.757 3.757 0 0 0-.984.27 1.67 1.67 0 0 0-.644.493 1.108 1.108 0 0 0-.235.714c0 .274.07.508.211.704.149.187.344.332.586.433.25.094.54.14.867.14ZM80.683 23V5.54h4.183v13.968h7.536V23h-11.72Zm13.558 0V10.297h4.067V23H94.24ZM96.27 8.95c-.617 0-1.133-.192-1.547-.575a1.867 1.867 0 0 1-.621-1.43c0-.578.207-1.054.62-1.43.415-.382.93-.574 1.548-.574.617 0 1.133.192 1.547.575.421.375.632.851.632 1.43 0 .57-.21 1.046-.632 1.429-.414.383-.93.574-1.547.574Zm12.363 1.347v3.082h-8.871v-3.082h8.871ZM101.999 23V9.23c0-.914.168-1.668.504-2.261a3.196 3.196 0 0 1 1.5-1.348c.656-.297 1.449-.445 2.379-.445.516 0 1.004.02 1.465.058.469.04.805.075 1.008.106l-.282 3.058a11.35 11.35 0 0 0-.562-.046 9.893 9.893 0 0 0-.656-.024c-.477 0-.813.106-1.008.317-.195.203-.293.523-.293.96V23h-4.055Zm14.063.27c-1.313 0-2.457-.274-3.434-.82a5.664 5.664 0 0 1-2.25-2.31c-.531-.992-.797-2.148-.797-3.468 0-1.297.266-2.442.797-3.434a5.79 5.79 0 0 1 2.227-2.32c.953-.563 2.062-.844 3.328-.844.93 0 1.777.153 2.543.457.765.297 1.43.73 1.992 1.301a5.72 5.72 0 0 1 1.301 2.05c.304.798.457 1.7.457 2.708v1.055h-11.274v-2.391h9.364l-1.875.516c0-.563-.098-1.047-.293-1.454a2.083 2.083 0 0 0-.821-.949c-.359-.219-.8-.328-1.324-.328-.515 0-.957.113-1.324.34a2.148 2.148 0 0 0-.844.937c-.187.399-.281.871-.281 1.418v1.746c0 .61.105 1.13.316 1.56.211.42.512.741.903.96.398.219.863.328 1.394.328.383 0 .727-.05 1.031-.152a2.23 2.23 0 0 0 .786-.457c.218-.203.379-.446.48-.727l3.633.27a4.506 4.506 0 0 1-1.102 2.097c-.554.594-1.254 1.063-2.097 1.407-.844.336-1.789.504-2.836.504Z"/></svg>