<svg xmlns="http://www.w3.org/2000/svg" width="141" height="29" fill="none"><path fill="#A6A9CD" d="M8.73 17.79v7.23a1.045 1.045 0 1 1-2.09 0V17.8c.291.212.64.331 1 .34a1.72 1.72 0 0 0 1.09-.35Zm8.9-2.09a1 1 0 0 0-1 1v1.26a1.045 1.045 0 1 0 2.09 0v-1.21a1 1 0 0 0-1.09-1.05ZM4.37 20.53a1.8 1.8 0 0 1-1-.34v7.25a1.05 1.05 0 1 0 2.1 0v-7.2a1.83 1.83 0 0 1-1.1.29Zm10-7a1 1 0 0 0-1.05 1v5.57a1.05 1.05 0 1 0 2.1 0v-5.5a.999.999 0 0 0-1.1-1.05l.05-.02Zm-3.32 2.14a1.83 1.83 0 0 1-1.05-.34v7.27a1.05 1.05 0 1 0 2.1 0v-7.26a1.77 1.77 0 0 1-1.1.35l.05-.02ZM2.1 21.24V.93A.94.94 0 0 0 1.16 0H.94A.94.94 0 0 0 0 .93v20.31a.94.94 0 0 0 .94.94h.22a.94.94 0 0 0 .94-.94Zm2.38-1.48h-.22a.94.94 0 0 1-.94-.94V3.35a.94.94 0 0 1 .94-.93h.22a.94.94 0 0 1 .94.93v15.49a.94.94 0 0 1-.94.94v-.02Zm3.31-2.38h-.23a.93.93 0 0 1-.93-.93V5.75a.931.931 0 0 1 .93-.94h.23a.94.94 0 0 1 .93.94v10.7a.93.93 0 0 1-.93.93Zm3.31-2.45h-.21a.94.94 0 0 1-.94-.93V8.24a.94.94 0 0 1 .94-1h.22a.94.94 0 0 1 .94.94v5.8a.94.94 0 0 1-.94.95h-.01Zm3.32-2.15h-.22a.94.94 0 0 1-.94-.94v-1.49a.94.94 0 0 1 .94-.93h.22a.94.94 0 0 1 .94.93v1.49a.94.94 0 0 1-.93.94h-.01Zm13.133-5.32V5.54h13.36v1.92h-5.59V23h-2.156V7.46h-5.614ZM41.534 23V10.297h1.97v1.98h.082a3.275 3.275 0 0 1 1.172-1.57c.554-.398 1.218-.598 1.992-.598.172 0 .347.008.527.024l.422.035v2.05a3.686 3.686 0 0 0-.469-.081 5.883 5.883 0 0 0-.773-.047 3.03 3.03 0 0 0-1.453.351 2.596 2.596 0 0 0-1.043 1.032c-.25.445-.375.996-.375 1.652V23h-2.051Zm8.485 0V10.297h2.051V23h-2.05ZM51.05 8.012c-.391 0-.723-.133-.996-.399a1.342 1.342 0 0 1-.41-.984c0-.383.136-.707.41-.973.273-.265.601-.398.984-.398.39 0 .723.133.996.398a1.3 1.3 0 0 1 .422.985c0 .375-.14.699-.422.972a1.362 1.362 0 0 1-.984.399Zm11.824 15.246c-1.563 0-2.942-.371-4.137-1.113-1.187-.75-2.117-1.801-2.789-3.153-.672-1.351-1.008-2.922-1.008-4.71 0-1.805.336-3.38 1.008-4.723.672-1.352 1.602-2.403 2.79-3.153 1.194-.75 2.573-1.125 4.136-1.125.898 0 1.742.133 2.531.399a6.863 6.863 0 0 1 2.145 1.16 6.487 6.487 0 0 1 1.57 1.84c.422.718.715 1.53.879 2.437h-2.192a4.95 4.95 0 0 0-.656-1.64A4.247 4.247 0 0 0 66.05 8.28a4.702 4.702 0 0 0-1.465-.738 5.598 5.598 0 0 0-1.711-.258c-1.149 0-2.16.285-3.035.856-.868.57-1.547 1.379-2.04 2.425-.484 1.04-.726 2.278-.726 3.715 0 1.43.246 2.668.738 3.715.492 1.04 1.172 1.844 2.04 2.414.867.563 1.874.844 3.023.844.601 0 1.172-.082 1.71-.246a4.901 4.901 0 0 0 1.454-.738 4.643 4.643 0 0 0 1.113-1.196 5.135 5.135 0 0 0 .668-1.64H70a7.178 7.178 0 0 1-.867 2.425 6.718 6.718 0 0 1-3.715 3 7.99 7.99 0 0 1-2.543.399Zm15.14.023c-1.164 0-2.187-.277-3.07-.832-.875-.555-1.559-1.328-2.05-2.32-.485-.992-.727-2.137-.727-3.434 0-1.304.242-2.453.726-3.445.492-1 1.176-1.777 2.051-2.332.883-.563 1.906-.844 3.07-.844 1.165 0 2.184.281 3.059.844.883.555 1.566 1.332 2.05 2.332.493.992.74 2.14.74 3.445 0 1.297-.247 2.442-.74 3.434-.484.992-1.167 1.765-2.05 2.32-.875.555-1.894.832-3.059.832Zm0-1.84c.82 0 1.512-.207 2.075-.62.562-.415.988-.981 1.277-1.7.289-.719.434-1.527.434-2.426 0-.906-.145-1.718-.434-2.437-.29-.719-.715-1.29-1.277-1.711-.563-.422-1.254-.633-2.075-.633-.82 0-1.511.211-2.074.633-.562.414-.988.98-1.277 1.7-.281.718-.422 1.534-.422 2.448 0 .907.14 1.72.422 2.438.289.71.71 1.273 1.266 1.687.562.414 1.257.621 2.085.621ZM88.561 5.54V23h-2.05V5.54h2.05Zm8.578 17.742c-1.234 0-2.293-.277-3.175-.832-.883-.562-1.563-1.336-2.04-2.32-.468-.992-.703-2.133-.703-3.422 0-1.297.239-2.441.715-3.434.485-1 1.156-1.78 2.016-2.343.867-.57 1.867-.856 3-.856.789 0 1.523.14 2.203.422a4.992 4.992 0 0 1 1.805 1.23c.523.547.929 1.227 1.218 2.04.29.812.434 1.754.434 2.824v.703H92.44v-1.746h9.059l-.914.621c0-.852-.145-1.598-.434-2.238-.289-.64-.703-1.14-1.242-1.5-.54-.36-1.192-.54-1.957-.54-.758 0-1.414.184-1.969.551-.547.36-.973.852-1.277 1.477-.297.617-.446 1.316-.446 2.098v.996c0 .906.157 1.691.47 2.355.312.664.757 1.176 1.335 1.535.586.36 1.281.54 2.086.54.555 0 1.047-.083 1.477-.247a3.015 3.015 0 0 0 1.101-.726c.297-.32.52-.696.668-1.125l2.004.246a4.368 4.368 0 0 1-.996 1.922 4.964 4.964 0 0 1-1.828 1.3c-.727.313-1.54.47-2.438.47Zm12.75-3.75v-2.8l7.524-11.192h2.32v3.668h-1.324l-4.981 7.406v.082h10.665v2.836h-14.204ZM118.444 23v-4.324l.035-1.254V5.539h3.375V23h-3.41Zm13.969.246c-1.227 0-2.313-.226-3.258-.68-.945-.46-1.695-1.093-2.25-1.898-.555-.813-.855-1.754-.902-2.824h3.445c.023.5.168.945.434 1.336.265.39.617.699 1.054.925.446.22.942.329 1.489.329.593 0 1.117-.133 1.57-.399a2.817 2.817 0 0 0 1.055-1.125c.257-.484.386-1.039.386-1.664 0-.633-.129-1.191-.386-1.676a2.78 2.78 0 0 0-1.055-1.148c-.453-.274-.977-.41-1.57-.41-.657 0-1.243.136-1.758.41-.516.265-.887.637-1.114 1.113l-3.257-.246.679-9.75h10.91v2.93h-7.828l-.375 4.254h.059c.383-.446.879-.793 1.488-1.043a5.264 5.264 0 0 1 2.016-.375c.781 0 1.512.144 2.191.433a5.41 5.41 0 0 1 1.805 1.23 5.474 5.474 0 0 1 1.195 1.852c.289.711.434 1.489.434 2.332 0 1.188-.27 2.242-.809 3.164a5.73 5.73 0 0 1-2.261 2.157c-.969.515-2.098.773-3.387.773Z"/></svg>