<svg xmlns="http://www.w3.org/2000/svg" width="112" height="29" fill="none"><path fill="#A6A9CD" d="M20.42 12.87a3.658 3.658 0 0 0-1.047 2.929l-.018-.018a4.344 4.344 0 0 1-4.694 4.694l.018.018A3.679 3.679 0 1 0 18 23.81l.019.018a4.344 4.344 0 0 1 4.694-4.694l-.019-.018a3.672 3.672 0 1 0-2.272-6.247h-.003Z"/><path fill="#A6A9CD" d="m13.042 18.135-.02-.018A3.632 3.632 0 0 0 17 14.143l.019.018a4.345 4.345 0 0 1 4.694-4.694l-.02-.018a3.678 3.678 0 1 0-3.317-3.318l-.018-.02a4.344 4.344 0 0 1-4.694 4.695l.018.019a3.632 3.632 0 0 0-3.977 3.974l-.018-.018a4.346 4.346 0 0 1-4.694 4.694l.018.018a3.677 3.677 0 1 0 3.318 3.318l.019.018a4.344 4.344 0 0 1 4.694-4.694Z"/><path fill="#A6A9CD" d="M6.34 16.128a3.652 3.652 0 0 0 1.045-2.93l.019.019A4.344 4.344 0 0 1 12.1 8.523l-.019-.018a3.677 3.677 0 1 0-3.318-3.318l-.018-.018a4.343 4.343 0 0 1-4.694 4.694l.018.018a3.671 3.671 0 1 0 2.273 6.247H6.34ZM39.803 23 35.07 5.54h2.754l2.543 10.089c.156.617.3 1.246.433 1.887.133.632.262 1.273.387 1.922.133.64.258 1.28.375 1.921h-.398a167.534 167.534 0 0 1 .797-3.843c.148-.641.3-1.27.456-1.887l2.614-10.09h2.883l2.601 10.09c.164.617.317 1.246.457 1.887.149.632.29 1.273.422 1.922.14.64.273 1.28.398 1.921h-.433l.375-1.922c.125-.648.258-1.289.398-1.921a227 227 0 0 1 .446-1.887l2.53-10.09h2.778L53.127 23h-3.023L47.28 12.465a48.242 48.242 0 0 1-.574-2.461c-.18-.875-.364-1.809-.551-2.8h.62c-.194.968-.374 1.882-.538 2.741a35.9 35.9 0 0 1-.574 2.52L42.85 23h-3.047Zm20.016 0V10.297h2.52V23h-2.52Zm1.254-14.766c-.438 0-.813-.148-1.125-.445a1.45 1.45 0 0 1-.457-1.078c0-.43.152-.79.457-1.078a1.576 1.576 0 0 1 1.125-.446c.445 0 .82.149 1.125.446.312.289.468.648.468 1.078 0 .422-.156.781-.468 1.078a1.55 1.55 0 0 1-1.125.445ZM70.88 28.11c-1.015 0-1.902-.14-2.66-.422-.758-.28-1.375-.675-1.851-1.183a4.046 4.046 0 0 1-.961-1.793l2.332-.445c.125.336.32.636.586.902.273.273.617.492 1.03.656.423.164.927.246 1.513.246 1 0 1.793-.254 2.379-.761.593-.508.89-1.262.89-2.262v-2.18h-.105c-.227.39-.512.75-.856 1.078-.336.32-.746.578-1.23.774-.477.187-1.043.281-1.7.281-1.054 0-1.992-.258-2.812-.773-.813-.516-1.45-1.25-1.91-2.204-.461-.96-.691-2.097-.691-3.41 0-1.32.23-2.468.69-3.445.462-.977 1.099-1.73 1.911-2.262.82-.539 1.762-.808 2.824-.808.656 0 1.227.101 1.711.304.492.196.91.461 1.254.797.352.336.637.703.856 1.102h.093v-2.004h2.473V23c0 1.195-.258 2.168-.773 2.918a4.414 4.414 0 0 1-2.075 1.664c-.875.352-1.847.527-2.918.527Zm-.093-7.242c.718 0 1.332-.172 1.84-.515.515-.352.91-.848 1.183-1.489.273-.64.41-1.398.41-2.273 0-.875-.136-1.637-.41-2.285-.266-.657-.656-1.164-1.172-1.524-.515-.36-1.133-.539-1.851-.539-.703 0-1.309.18-1.817.54-.508.35-.898.85-1.172 1.5-.265.648-.398 1.417-.398 2.308 0 .89.137 1.656.41 2.297.273.64.664 1.133 1.172 1.476.508.336 1.11.504 1.805.504Zm14.39 7.242c-1.015 0-1.902-.14-2.66-.422-.758-.28-1.375-.675-1.852-1.183a4.045 4.045 0 0 1-.96-1.793l2.332-.445a2.5 2.5 0 0 0 .586.902c.273.273.617.492 1.03.656.423.164.927.246 1.513.246 1 0 1.793-.254 2.378-.761.594-.508.891-1.262.891-2.262v-2.18h-.105c-.227.39-.512.75-.856 1.078-.336.32-.746.578-1.23.774-.477.187-1.043.281-1.7.281-1.054 0-1.992-.258-2.812-.773-.813-.516-1.45-1.25-1.91-2.204-.461-.96-.692-2.097-.692-3.41 0-1.32.23-2.468.692-3.445.46-.977 1.097-1.73 1.91-2.262.82-.539 1.762-.808 2.824-.808.656 0 1.227.101 1.711.304.492.196.91.461 1.254.797.352.336.637.703.855 1.102h.094v-2.004h2.473V23c0 1.195-.258 2.168-.774 2.918a4.414 4.414 0 0 1-2.074 1.664c-.875.352-1.847.527-2.918.527Zm-.093-7.242c.718 0 1.332-.172 1.84-.515.515-.352.91-.848 1.183-1.489.273-.64.41-1.398.41-2.273 0-.875-.137-1.637-.41-2.285-.266-.657-.656-1.164-1.172-1.524-.516-.36-1.133-.539-1.852-.539-.703 0-1.308.18-1.816.54-.508.35-.898.85-1.172 1.5-.265.648-.398 1.417-.398 2.308 0 .89.137 1.656.41 2.297.273.64.664 1.133 1.172 1.476.508.336 1.11.504 1.805.504ZM96.556 5.54V23h-2.52V5.54h2.52Zm8.555 17.742c-1.258 0-2.34-.277-3.246-.832a5.66 5.66 0 0 1-2.086-2.32c-.485-.992-.727-2.133-.727-3.422 0-1.297.246-2.441.739-3.434.492-1 1.179-1.78 2.062-2.343.891-.57 1.918-.856 3.082-.856.82 0 1.582.14 2.285.422a5.11 5.11 0 0 1 1.84 1.254c.531.555.945 1.238 1.242 2.05.297.805.446 1.735.446 2.79v.785h-10.442v-1.898h9.129l-1.137.597c0-.781-.132-1.465-.398-2.05-.266-.586-.649-1.04-1.149-1.36-.492-.328-1.093-.492-1.804-.492-.696 0-1.297.164-1.805.492-.508.32-.902.766-1.184 1.336-.273.57-.41 1.223-.41 1.957v1.172c0 .828.145 1.547.434 2.156a3.21 3.21 0 0 0 1.242 1.406c.539.329 1.176.493 1.91.493a4.02 4.02 0 0 0 1.383-.223 2.735 2.735 0 0 0 1.02-.668 2.67 2.67 0 0 0 .621-1.031l2.39.246a4.332 4.332 0 0 1-1.019 1.969c-.5.562-1.129 1.003-1.887 1.324-.758.32-1.601.48-2.531.48Z"/></svg>