<svg xmlns="http://www.w3.org/2000/svg" width="211" height="48" fill="none"><g fill="#7A71EB" clip-path="url(#a)"><path fill-rule="evenodd" d="M25 36.5a10 10 0 0 0 10-10 15 15 0 0 0-30 0 10 10 0 0 0 10 10h10Zm-5-21a11 11 0 0 0-11 11 6 6 0 0 0 6 6h10a6 6 0 0 0 6-6 11 11 0 0 0-11-11Z" clip-rule="evenodd"/><path fill-rule="evenodd" d="M13 42a11.51 11.51 0 0 1-4.975-1.142c-1.577-.754-3.01-1.858-4.217-3.251A15.333 15.333 0 0 1 .99 32.74C.336 30.92 0 28.97 0 27a20 20 0 0 1 40 0c0 1.97-.336 3.92-.99 5.74a15.333 15.333 0 0 1-2.818 4.867c-1.207 1.392-2.64 2.497-4.217 3.251A11.513 11.513 0 0 1 27 42H13ZM8.686 15.686A16 16 0 0 1 36 27c0 1.518-.26 3.01-.754 4.389a11.335 11.335 0 0 1-2.076 3.598c-.867 1-1.866 1.758-2.92 2.262A7.513 7.513 0 0 1 27 38H13a7.513 7.513 0 0 1-3.25-.75c-1.055-.505-2.053-1.263-2.92-2.263a11.335 11.335 0 0 1-2.076-3.598A13.024 13.024 0 0 1 4 27a16 16 0 0 1 4.686-11.314Z" clip-rule="evenodd"/><path d="M25 31.5h-5.004a5.005 5.005 0 0 1-2.774-.843A4.999 4.999 0 1 1 25 26.5h-4a1 1 0 1 0-1 1h5a1.001 1.001 0 0 0 1-1 6 6 0 1 0-9.317 5H15a5 5 0 0 1-5-5 10 10 0 0 1 20 0 5 5 0 0 1-5 5Z"/></g><path fill="#000" d="m67.184 15.192-.672 2.304c-.6-.336-1.752-.816-3.264-.816-2.184 0-3.096 1.272-3.096 2.448 0 1.56 1.032 2.328 3.36 3.336 2.952 1.296 4.368 2.904 4.368 5.424 0 3.072-2.28 5.376-6.408 5.376-1.728 0-3.552-.504-4.44-1.104l.624-2.328c.984.6 2.472 1.08 3.984 1.08 2.184 0 3.408-1.128 3.408-2.784 0-1.56-.936-2.52-3.12-3.432-2.736-1.104-4.584-2.76-4.584-5.256 0-2.904 2.328-5.088 5.976-5.088 1.752 0 3.072.432 3.864.84Zm11.066 4.584h2.927l-3.192 9.168c-1.56 4.344-2.663 6.792-4.248 8.328-1.2 1.104-2.423 1.56-3.072 1.704l-.72-2.352c2.88-1.032 3.913-3.72 3.913-4.08 0-.144-.025-.312-.145-.576l-4.535-12.192h3.047l2.4 7.44c.264.864.528 1.872.72 2.64h.073c.191-.768.456-1.752.695-2.64l2.136-7.44Zm15.805 5.136V33h-2.784v-7.752c0-1.872-.624-3.456-2.52-3.456-1.368 0-2.832 1.128-2.832 3.24V33h-2.784v-9.504c0-1.464-.048-2.592-.096-3.72h2.424l.144 1.968h.072c.624-1.128 2.016-2.256 4.008-2.256 2.064 0 4.368 1.344 4.368 5.424Zm4.046-5.136v-2.4l2.76-.864v3.264h3.144v2.088h-3.144v6.696c0 1.632.504 2.424 1.68 2.424a4.05 4.05 0 0 0 1.224-.168l.096 2.136c-.48.192-1.224.312-2.16.312-1.104 0-2.04-.36-2.616-1.008-.672-.72-.984-1.824-.984-3.552v-6.84H96.23v-2.088h1.872Zm19.228 5.232V33h-2.784v-7.728c0-1.896-.648-3.48-2.52-3.48-1.368 0-2.832 1.128-2.832 3.12V33h-2.784V13.752h2.784v7.824h.048a4.506 4.506 0 0 1 3.792-2.088c1.992 0 4.296 1.344 4.296 5.52Zm8.894-5.52c3.624 0 6 2.736 6 6.792 0 4.944-3.216 6.984-6.192 6.984-3.432 0-6.048-2.52-6.048-6.792 0-4.464 2.736-6.984 6.24-6.984Zm3.144 6.864c0-2.184-.912-4.776-3.24-4.776-2.376 0-3.288 2.544-3.288 4.824 0 2.592 1.224 4.776 3.264 4.776 2.016 0 3.264-2.184 3.264-4.824Z"/><path fill="#7A71EB" d="m144.387 15.192-.672 2.304c-.6-.336-1.752-.816-3.264-.816-2.184 0-3.096 1.272-3.096 2.448 0 1.56 1.032 2.328 3.36 3.336 2.952 1.296 4.368 2.904 4.368 5.424 0 3.072-2.28 5.376-6.408 5.376-1.728 0-3.552-.504-4.44-1.104l.624-2.328c.984.6 2.472 1.08 3.984 1.08 2.184 0 3.408-1.128 3.408-2.784 0-1.56-.936-2.52-3.12-3.432-2.736-1.104-4.584-2.76-4.584-5.256 0-2.904 2.328-5.088 5.976-5.088 1.752 0 3.072.432 3.864.84Zm6.026 6.6h.048c.912-1.488 2.352-2.304 4.2-2.304 2.976 0 5.208 2.64 5.208 6.744 0 4.848-2.808 7.032-5.592 7.032-1.584 0-2.88-.744-3.528-1.824h-.048v6.912h-2.784V24.048c0-1.728-.048-3.096-.096-4.272h2.448l.144 2.016Zm.288 3.432v2.448c0 2.376 1.632 3.384 3 3.384 2.16 0 3.336-1.992 3.336-4.728 0-2.52-1.128-4.608-3.264-4.608-1.656 0-3.072 1.56-3.072 3.504Zm22.831-.216V33h-2.784v-7.728c0-1.896-.648-3.48-2.52-3.48-1.368 0-2.832 1.128-2.832 3.12V33h-2.784V13.752h2.784v7.824h.048a4.506 4.506 0 0 1 3.792-2.088c1.992 0 4.296 1.344 4.296 5.52Zm12.71 5.496.456 1.968c-.936.432-2.4.792-4.2.792-3.984 0-6.288-2.664-6.288-6.696 0-3.936 2.208-7.08 5.952-7.08 3.72 0 5.208 3.096 5.208 6.36 0 .456-.024.84-.072 1.176h-8.4c.072 2.976 1.92 4.104 4.008 4.104 1.464 0 2.472-.264 3.336-.624Zm-7.32-5.472h5.808c.024-1.584-.624-3.552-2.76-3.552-2.04 0-2.904 2.016-3.048 3.552Zm17.783-5.472v2.664a4.126 4.126 0 0 0-.816-.072c-1.872 0-3.048 1.536-3.048 3.84V33h-2.784v-9.192a68.07 68.07 0 0 0-.096-4.032h2.424l.096 2.424h.096c.6-1.68 1.992-2.712 3.432-2.712.264 0 .456.024.696.072Zm11.381 10.944.456 1.968c-.936.432-2.4.792-4.2.792-3.984 0-6.288-2.664-6.288-6.696 0-3.936 2.208-7.08 5.952-7.08 3.72 0 5.208 3.096 5.208 6.36 0 .456-.024.84-.072 1.176h-8.4c.072 2.976 1.92 4.104 4.008 4.104 1.464 0 2.472-.264 3.336-.624Zm-7.32-5.472h5.808c.024-1.584-.624-3.552-2.76-3.552-2.04 0-2.904 2.016-3.048 3.552Z"/><defs><clipPath id="a"><path fill="#fff" d="M0 6.5h40v35H0z"/></clipPath></defs></svg>