<svg xmlns="http://www.w3.org/2000/svg" width="254" height="41" fill="none"><g clip-path="url(#a)"><path fill="#7A71EB" fill-rule="evenodd" d="M13.715.516c-2.257 0-4.42.896-6.016 2.492L0 10.707v3.524c0 2.49 1.07 4.73 2.774 6.285A8.485 8.485 0 0 0 0 26.802v3.524l7.699 7.698A8.507 8.507 0 0 0 20 37.742a8.508 8.508 0 0 0 12.301.282L40 30.326v-3.524c0-2.49-1.07-4.73-2.774-6.286A8.485 8.485 0 0 0 40 14.231v-3.524l-7.699-7.7A8.508 8.508 0 0 0 20 3.29 8.485 8.485 0 0 0 13.715.516Zm12.044 20a8.528 8.528 0 0 1-.282-.27L20 14.77l-5.477 5.477a8.528 8.528 0 0 1-.282.27c.096.087.19.177.282.269L20 26.262l5.477-5.476c.092-.093.186-.182.282-.27Zm-3.537 9.81v1.682a4.063 4.063 0 0 0 6.936 2.874l6.398-6.397v-1.683a4.063 4.063 0 0 0-6.937-2.874l-6.397 6.398Zm-4.444 0-6.397-6.398a4.063 4.063 0 0 0-6.937 2.873v1.684l6.397 6.397a4.063 4.063 0 0 0 6.937-2.873v-1.683Zm0-21.302v1.683l-6.397 6.397a4.063 4.063 0 0 1-6.937-2.873v-1.683l6.397-6.397a4.063 4.063 0 0 1 6.937 2.873Zm10.841 8.08-6.397-6.397V9.024a4.063 4.063 0 0 1 6.936-2.873l6.398 6.397v1.683a4.063 4.063 0 0 1-6.937 2.873Z" clip-rule="evenodd"/></g><path fill="#000" d="M73.44 17.832a3.967 3.967 0 0 0-.576-1.568 4.858 4.858 0 0 0-2.656-2.112 4.86 4.86 0 0 0-1.76-.32c-1.13 0-2.09.224-2.88.672a5.249 5.249 0 0 0-1.92 1.76 7.779 7.779 0 0 0-1.088 2.496c-.213.939-.32 1.91-.32 2.912 0 .96.107 1.899.32 2.816a7.854 7.854 0 0 0 1.088 2.432 5.643 5.643 0 0 0 1.92 1.76c.79.427 1.75.64 2.88.64 1.536 0 2.73-.47 3.584-1.408.875-.939 1.408-2.176 1.6-3.712h4.864c-.128 1.43-.459 2.72-.992 3.872a9.273 9.273 0 0 1-2.112 2.944 8.978 8.978 0 0 1-3.072 1.856c-1.173.427-2.464.64-3.872.64-1.75 0-3.328-.299-4.736-.896-1.387-.619-2.56-1.461-3.52-2.528s-1.696-2.315-2.208-3.744c-.512-1.45-.768-3.008-.768-4.672 0-1.707.256-3.285.768-4.736.512-1.472 1.248-2.752 2.208-3.84.96-1.088 2.133-1.941 3.52-2.56 1.408-.619 2.987-.928 4.736-.928 1.259 0 2.443.181 3.552.544a9.256 9.256 0 0 1 3.008 1.6 8.275 8.275 0 0 1 2.208 2.56c.576 1.024.939 2.197 1.088 3.52H73.44Zm8.135-7.68h4.544V33h-4.544V10.152Zm12.154 14.592c0 .661.064 1.312.192 1.952.128.619.341 1.184.64 1.696.32.49.736.885 1.248 1.184.512.299 1.152.448 1.92.448s1.408-.15 1.92-.448a3.34 3.34 0 0 0 1.248-1.184 5.13 5.13 0 0 0 .672-1.696 9.93 9.93 0 0 0 .192-1.952 9.93 9.93 0 0 0-.192-1.952 4.791 4.791 0 0 0-.672-1.696 3.339 3.339 0 0 0-1.248-1.184c-.512-.32-1.152-.48-1.92-.48s-1.408.16-1.92.48a3.685 3.685 0 0 0-1.248 1.184 5.19 5.19 0 0 0-.64 1.696 9.93 9.93 0 0 0-.192 1.952Zm-4.544 0c0-1.323.202-2.517.608-3.584.405-1.088.981-2.005 1.728-2.752a7.453 7.453 0 0 1 2.688-1.76c1.045-.427 2.218-.64 3.52-.64 1.301 0 2.474.213 3.52.64 1.066.405 1.973.992 2.72 1.76.746.747 1.322 1.664 1.728 2.752.405 1.067.608 2.261.608 3.584s-.203 2.517-.608 3.584a7.96 7.96 0 0 1-1.728 2.752c-.747.747-1.654 1.323-2.72 1.728-1.046.405-2.219.608-3.52.608-1.302 0-2.475-.203-3.52-.608a7.667 7.667 0 0 1-2.688-1.728 7.94 7.94 0 0 1-1.728-2.752c-.406-1.067-.608-2.261-.608-3.584ZM124.779 33h-4.32v-2.304h-.096c-.576.96-1.322 1.653-2.24 2.08a6.61 6.61 0 0 1-2.816.64c-1.216 0-2.218-.16-3.008-.48-.768-.32-1.376-.768-1.824-1.344-.448-.597-.768-1.312-.96-2.144a14.436 14.436 0 0 1-.256-2.816V16.456h4.544V25.8c0 1.365.214 2.39.64 3.072.427.661 1.184.992 2.272.992 1.238 0 2.134-.363 2.688-1.088.555-.747.832-1.963.832-3.648v-8.672h4.544V33Zm15.193-8.32c0-.683-.064-1.333-.192-1.952-.128-.64-.352-1.195-.672-1.664a3.493 3.493 0 0 0-1.184-1.184c-.491-.299-1.109-.448-1.856-.448-.747 0-1.376.15-1.888.448a3.685 3.685 0 0 0-1.248 1.184 5.735 5.735 0 0 0-.672 1.696 9.617 9.617 0 0 0-.192 1.952c0 .64.075 1.28.224 1.92.149.64.384 1.216.704 1.728.341.49.757.896 1.248 1.216.512.299 1.12.448 1.824.448.747 0 1.365-.15 1.856-.448a3.409 3.409 0 0 0 1.216-1.184 5.561 5.561 0 0 0 .64-1.728c.128-.64.192-1.301.192-1.984Zm.064 6.208h-.064c-.533.896-1.237 1.547-2.112 1.952-.853.384-1.824.576-2.912.576-1.237 0-2.325-.235-3.264-.704a6.937 6.937 0 0 1-2.336-1.952 9.549 9.549 0 0 1-1.376-2.848 12.272 12.272 0 0 1-.448-3.328c0-1.11.149-2.176.448-3.2.32-1.045.779-1.963 1.376-2.752a6.859 6.859 0 0 1 2.304-1.888c.917-.49 1.984-.736 3.2-.736a6.27 6.27 0 0 1 2.784.64 4.758 4.758 0 0 1 2.112 1.824h.064v-8.32h4.544V33h-4.32v-2.112ZM162.201 19.4h5.088c.896 0 1.632-.213 2.208-.64.576-.427.864-1.12.864-2.08 0-.533-.096-.97-.288-1.312a2.13 2.13 0 0 0-.768-.8 3.03 3.03 0 0 0-1.12-.384 6.208 6.208 0 0 0-1.28-.128h-4.704V19.4Zm-5.024-9.248h10.752c1.088 0 2.08.096 2.976.288.896.192 1.664.512 2.304.96a4.163 4.163 0 0 1 1.472 1.728c.362.725.544 1.621.544 2.688 0 1.152-.267 2.112-.8 2.88-.512.768-1.28 1.397-2.304 1.888 1.408.405 2.453 1.12 3.136 2.144.704 1.003 1.056 2.219 1.056 3.648 0 1.152-.224 2.155-.672 3.008a5.81 5.81 0 0 1-1.824 2.048c-.747.533-1.611.928-2.592 1.184a11.5 11.5 0 0 1-2.976.384h-11.072V10.152Zm5.024 18.944h5.376c.49 0 .96-.043 1.408-.128a3.947 3.947 0 0 0 1.184-.48 2.42 2.42 0 0 0 .8-.928c.213-.384.32-.875.32-1.472 0-1.173-.331-2.005-.992-2.496-.662-.512-1.536-.768-2.624-.768h-5.472v6.272Zm17.155-18.944h4.544V33h-4.544V10.152Zm12.154 14.592c0 .661.064 1.312.192 1.952.128.619.341 1.184.64 1.696.32.49.736.885 1.248 1.184.512.299 1.152.448 1.92.448s1.408-.15 1.92-.448a3.34 3.34 0 0 0 1.248-1.184 5.13 5.13 0 0 0 .672-1.696 9.93 9.93 0 0 0 .192-1.952 9.93 9.93 0 0 0-.192-1.952 4.791 4.791 0 0 0-.672-1.696 3.34 3.34 0 0 0-1.248-1.184c-.512-.32-1.152-.48-1.92-.48s-1.408.16-1.92.48a3.685 3.685 0 0 0-1.248 1.184 5.184 5.184 0 0 0-.64 1.696 9.93 9.93 0 0 0-.192 1.952Zm-4.544 0c0-1.323.203-2.517.608-3.584.405-1.088.981-2.005 1.728-2.752a7.46 7.46 0 0 1 2.688-1.76c1.045-.427 2.219-.64 3.52-.64 1.301 0 2.475.213 3.52.64 1.067.405 1.973.992 2.72 1.76.747.747 1.323 1.664 1.728 2.752.405 1.067.608 2.261.608 3.584s-.203 2.517-.608 3.584a7.93 7.93 0 0 1-1.728 2.752c-.747.747-1.653 1.323-2.72 1.728-1.045.405-2.219.608-3.52.608-1.301 0-2.475-.203-3.52-.608a7.674 7.674 0 0 1-2.688-1.728 7.93 7.93 0 0 1-1.728-2.752c-.405-1.067-.608-2.261-.608-3.584Zm24.107 0c0 .661.064 1.312.192 1.952.128.619.341 1.184.64 1.696.32.49.736.885 1.248 1.184.512.299 1.152.448 1.92.448s1.408-.15 1.92-.448a3.34 3.34 0 0 0 1.248-1.184 5.13 5.13 0 0 0 .672-1.696 9.93 9.93 0 0 0 .192-1.952 9.93 9.93 0 0 0-.192-1.952 4.791 4.791 0 0 0-.672-1.696 3.34 3.34 0 0 0-1.248-1.184c-.512-.32-1.152-.48-1.92-.48s-1.408.16-1.92.48a3.685 3.685 0 0 0-1.248 1.184 5.184 5.184 0 0 0-.64 1.696 9.93 9.93 0 0 0-.192 1.952Zm-4.544 0c0-1.323.202-2.517.608-3.584.405-1.088.981-2.005 1.728-2.752a7.443 7.443 0 0 1 2.688-1.76c1.045-.427 2.218-.64 3.52-.64 1.301 0 2.474.213 3.52.64 1.066.405 1.973.992 2.719 1.76.747.747 1.323 1.664 1.729 2.752.405 1.067.608 2.261.608 3.584s-.203 2.517-.608 3.584a7.947 7.947 0 0 1-1.729 2.752c-.746.747-1.653 1.323-2.719 1.728-1.046.405-2.219.608-3.52.608-1.302 0-2.475-.203-3.52-.608a7.656 7.656 0 0 1-2.688-1.728 7.93 7.93 0 0 1-1.728-2.752c-.406-1.067-.608-2.261-.608-3.584Zm20.202-8.288h4.288v2.24h.064c.597-.853 1.312-1.515 2.144-1.984.853-.47 1.824-.704 2.912-.704 1.045 0 1.995.203 2.848.608.875.405 1.536 1.12 1.984 2.144.491-.725 1.152-1.365 1.984-1.92.853-.555 1.856-.832 3.008-.832.875 0 1.685.107 2.432.32a4.891 4.891 0 0 1 1.92 1.024c.533.47.949 1.088 1.248 1.856.299.747.448 1.653.448 2.72V33h-4.544v-9.376c0-.555-.021-1.077-.064-1.568-.043-.49-.16-.917-.352-1.28a2.106 2.106 0 0 0-.864-.864c-.363-.213-.864-.32-1.504-.32s-1.163.128-1.568.384a2.675 2.675 0 0 0-.928.96 4.155 4.155 0 0 0-.448 1.344c-.064.49-.096.992-.096 1.504V33h-4.544v-9.28c0-.49-.011-.97-.032-1.44a3.855 3.855 0 0 0-.288-1.344 1.85 1.85 0 0 0-.8-.96c-.363-.256-.907-.384-1.632-.384-.213 0-.501.053-.864.16-.341.085-.683.267-1.024.544-.32.256-.597.64-.832 1.152-.235.49-.352 1.141-.352 1.952V33h-4.544V16.456Z"/><defs><clipPath id="a"><path fill="#fff" d="M0 0h40v41H0z"/></clipPath></defs></svg>