<svg xmlns="http://www.w3.org/2000/svg" id="Layer_2" viewBox="0 0 165.53 258.1"><defs><style>.cls-2{fill:none}.cls-3{fill:#eee;stroke-miterlimit:10;stroke:#eee}.cls-2{stroke:#eee;stroke-linecap:round;stroke-linejoin:round;stroke-width:2px}</style></defs><g id="DUO-Illustrations"><path d="M90.44 201.28 98 226.04l16.73-4.08 5-34.87-22.47 10.55-6.82 3.63ZM38.2 164.44l6.68 37.71 32.27-8.78-5.07-23.17s-17.87-.12-33.89-5.76Zm11.39 65.76 23.27-4.51 5.4 19.9s-18.07 1.94-27.4-6.84l-1.27-8.55Z" class="cls-3"/><path d="M79.28 245.41s14.62 1.5 30.44-7.27c3.04-1.69 4.75 3.93 4.75 6.24 0 6.96-15.26 13.23-34.19 13.23s-34.3-5.65-34.3-12.62c0-2.44 1.36-6.84 5.15-6.65.31.02 3.62 9.45 28.14 7.07Z" class="cls-3"/><path d="M37.76 163.14s13.44 75.29 13.19 75.04c-.26-.26 2.03 8.29 34.78 7.42 0 0 15.45.16 25.95-8.76.46-.39.75-.93.83-1.52l9.99-71.62m-39.87-8.24c1.39 0-.44 0 0 0 5.89.06 10.64.26 15.64.69.84.07-.81-.08 0 0" class="cls-2"/><path d="M104.18 156.75c.9.09-.3 0 .55.11 11.06 1.33 17.76 3.43 17.76 5.94 0 4.06-18.99 7.35-42.39 7.35s-42.38-3.29-42.38-7.35c0-2.72 8.56-5.1 21.27-6.37.96-.1-1.01.08 0 0m6.18-.51c1.05-.09-1.1.07 0 0 3.54-.23 7.3-.38 11.22-.44.58 0-1.23 0 0 0" class="cls-2"/><path d="M82.47 169.77s-4.56-9.82-5.55-14.12c-1.9-8.27-1.5-23.77 17.14-43.68 0 0 23.69-22.51 6.54-48.74-.23-.36-.23-.82 0-1.18s.67-.53 1.09-.45c11.45 2.5 55.72 15.27 23.47 58.29 0 0-21.22 24.22-42.45 20.46 0 0-8.64.04 4.66 29.29m-20.74-.44s-13.5-9.76-3.92-30.44c0 0-26.1 24.85-54.82-.48 0 0-1.88-2.59-6.89-1.66 0 0-.24-15.95 23.79-8.7 0 0 12.31 5.29 27.7-5.68.41-.3.86-.53 1.35-.7 2.87-.9 12.23-2.88 14.21 9.65 0 0 .94 5.69-3.21 14.07 0 0-6.77 14.07 13.49 24.87" class="cls-2"/><path d="M99.53 168.96s2.83-14.62-5.84-28.57c-.16-.25.61.98.54.91m-11.7-14.49c-1.86-2.32.13.15 0 0-2.05-2.35-5.12-3.87-8.23-5.57 0 0-40.81-20.33-13.42-64.06 0 0 1.23 5.93 2.65 7.47 0 0 25.68 21.4 17 46.04 0 0-3.73 6.33 4.16 12.74.05.04-.33.02-.27 0 .07-.02-1.68-1.92 0 0m13.95 15.53c1.38 1.58-.4-.87 0 0 2.86 6.11 6.11 15.24 7.2 28.98m-60.49 33.89 31.97-8.71-5.39-22.58m46.84 16.11-27.8 14.59 7.21 25.04 16.28-4.66m-64.08 8.36 22.86-4.89 4.76 19.58M50.42 133.2s-6.96 9.37-25.49 2.73" class="cls-2"/><path d="M63.41 82.38s.2 10.4 8.91 22.35m28.34 18.64s11.73-4.88 16.36-26.23" class="cls-2"/><path d="M1 0h164.53v257.6H1z" style="fill:none;stroke-width:0"/></g></svg>