<svg xmlns="http://www.w3.org/2000/svg" id="Layer_2" viewBox="0 0 164.53 257.6"><defs><style>.cls-1{stroke:#222831;stroke-linecap:round;stroke-linejoin:round;stroke-width:2px;fill:none}.cls-3,.cls-4{stroke-width:0}.cls-3{fill:#7971e7}.cls-4{fill:#222831}</style></defs><g id="DUO-Illustrations"><path d="M0 0h164.53v257.6H0z" style="stroke-width:0;fill:none"/><path d="M162.41 243.21c0 7.94-35.88 14.39-80.14 14.39s-80.15-6.44-80.15-14.39c0-3.26 6.03-6.26 16.19-8.68 8.04 7.97 33.63 13.79 63.96 13.79s55.92-5.82 63.96-13.79c10.16 2.42 16.19 5.42 16.19 8.68Z" class="cls-4"/><ellipse cx="82.26" cy="166.07" class="cls-1" rx="75.24" ry="21.61"/><path d="M132.44 163.69c-2.75-.94-4.23-8.95-8.14-9.71-3.11-.6-7.7 6.19-11.41 5.74-3.25-.4-5.98-8.11-9.61-8.38-3.32-.25-7.19 6.97-10.77 6.84-3.37-.12-6.71-7.59-10.25-7.59s-6.88 7.48-10.25 7.59c-3.58.13-7.44-7.09-10.77-6.84-3.62.27-6.36 7.98-9.6 8.38-3.71.45-8.3-6.34-11.41-5.74-3.91.75-5.39 8.76-8.14 9.71-5.04 1.73-12.84.23-12.84 2.38s7.8.65 12.84 2.38c2.75.94 4.23 8.95 8.14 9.71 3.11.6 7.7-6.19 11.41-5.74 3.25.4 5.98 8.11 9.61 8.38 3.32.25 7.19-6.97 10.77-6.84 3.37.12 6.71 7.59 10.25 7.59s6.88-7.48 10.25-7.59c3.58-.13 7.44 7.09 10.77 6.84 3.62-.27 6.36-7.98 9.6-8.38 3.71-.45 8.3 6.34 11.41 5.74 3.91-.75 5.39-8.76 8.14-9.71 5.04-1.73 12.84-.23 12.84-2.38s-7.8-.65-12.84-2.38Z" class="cls-4"/><path d="M15.68 193v36.2c0 1.85.92 3.64 2.63 5.33 8.04 7.97 33.63 13.79 63.96 13.79s55.92-5.82 63.96-13.79c1.71-1.69 2.63-3.48 2.63-5.33V193" class="cls-1"/><path d="M157.51 166.07v16.86c0 11.93-33.69 21.61-75.24 21.61s-75.25-9.68-75.25-21.61v-16.86" class="cls-1"/><path d="M106.93 51.8c-3.07 7.2-10.41 10.97-10.41 10.97s-2.37-7.91.7-15.11c3.07-7.2 10.41-10.97 10.41-10.97s2.37 7.91-.7 15.11Z" class="cls-3"/><path d="M86.41 54.28c7.74 3.34 11.77 11.26 11.77 11.26s-8.53 2.52-16.27-.82-11.77-11.26-11.77-11.26 8.53-2.52 16.27.82Zm25.46 92.14c-15.67 12.92-37.08 12.82-37.08 12.82s3.99-21.04 19.65-33.96c15.67-12.92 37.08-12.82 37.08-12.82s-3.99 21.04-19.65 33.96Z" class="cls-3"/><path d="M69.29 117.77c11.79 16.74 10.06 38.27 10.06 38.27s-20.85-5.62-32.65-22.36c-11.79-16.74-10.06-38.27-10.06-38.27s20.85 5.62 32.65 22.36Zm39.88-12.1c-11.45 4.63-23.86.65-23.86.65s6.16-11.48 17.61-16.1c11.45-4.63 23.86-.65 23.86-.65s-6.16 11.48-17.61 16.1Z" class="cls-3"/><path d="M82.11 83.68c6.38 7.83 6.27 18.49 6.27 18.49s-10.46-2.04-16.84-9.88c-6.38-7.83-6.27-18.49-6.27-18.49s10.46 2.04 16.84 9.88Z" class="cls-3"/><path d="M87.17 33.75s9.58 21.95 3.22 49.93c-1.56 6.87-3.95 12.65-6.77 17.19-4.45 7.17-13.36 27.63-7.48 70.77h9.2s-5.86-10.78-4.81-32.22c.59-12.03 3.23-23.14 7.27-31.37 6.84-13.93 19.78-47.94-.63-74.31Z" class="cls-4"/></g></svg>