<svg xmlns="http://www.w3.org/2000/svg" width="207" height="32" fill="none"><g clip-path="url(#a)"><path fill="#212326" d="M16.625.302 37.139 20.73v10.967h-9.573v-7.025L12.667 9.835H9.572v21.863H0V.302h16.625Zm10.94 10.895V.302h9.573v10.895h-9.573Z"/></g><path fill="#000" d="M55.306 5.7h4.344l6.912 8.88V5.7h4.608v16.8h-4.08l-7.176-9.216V22.5h-4.608V5.7Zm26.884 9.24c-.08-.72-.32-1.288-.72-1.704-.4-.432-.912-.648-1.536-.648-.608 0-1.104.216-1.488.648-.384.416-.64.984-.768 1.704h4.512Zm-1.872 7.872c-1.024 0-1.96-.16-2.808-.48a7.042 7.042 0 0 1-2.208-1.368 6.449 6.449 0 0 1-1.44-2.136c-.336-.832-.504-1.752-.504-2.76v-.048c0-.944.16-1.824.48-2.64a6.488 6.488 0 0 1 1.344-2.16 6.4 6.4 0 0 1 2.088-1.464c.8-.352 1.68-.528 2.64-.528 1.12 0 2.088.192 2.904.576.832.384 1.512.904 2.04 1.56a6.12 6.12 0 0 1 1.2 2.256c.272.848.408 1.752.408 2.712v.456c0 .16-.008.32-.024.48H77.75c.176.72.504 1.256.984 1.608.496.352 1.104.528 1.824.528a3.49 3.49 0 0 0 1.488-.312c.464-.208.928-.544 1.392-1.008l2.52 2.088c-.624.8-1.4 1.44-2.328 1.92-.912.48-2.016.72-3.312.72Zm11.435-6.864-4.296-6.432h4.92l1.92 3.192 1.92-3.192h4.824l-4.272 6.408 4.368 6.576h-4.896l-2.016-3.336-2.04 3.336h-4.8l4.368-6.552Zm15.117 6.84c-1.392 0-2.48-.424-3.264-1.272-.768-.848-1.152-2.016-1.152-3.504V9.516h4.56v7.032c0 .72.168 1.264.504 1.632.336.368.784.552 1.344.552.544 0 .992-.184 1.344-.552.368-.368.552-.912.552-1.632V9.516h4.56V22.5h-4.56v-1.776a6.43 6.43 0 0 1-1.56 1.44c-.624.416-1.4.624-2.328.624Zm16.051 0c-1.104 0-2.176-.152-3.216-.456a10.05 10.05 0 0 1-2.928-1.464l1.704-2.76a9.741 9.741 0 0 0 2.28 1.128c.784.24 1.512.36 2.184.36.768 0 1.152-.232 1.152-.696v-.048c0-.256-.176-.456-.528-.6-.352-.144-.872-.312-1.56-.504-.64-.16-1.24-.344-1.8-.552a6.665 6.665 0 0 1-1.464-.792 3.567 3.567 0 0 1-.984-1.152c-.24-.448-.36-1-.36-1.656v-.048c0-.688.128-1.296.384-1.824.272-.544.64-.992 1.104-1.344a4.929 4.929 0 0 1 1.632-.84 7.238 7.238 0 0 1 2.088-.288c.96 0 1.904.136 2.832.408a9.197 9.197 0 0 1 2.52 1.104l-1.56 2.88a10.68 10.68 0 0 0-2.04-.864c-.688-.224-1.288-.336-1.8-.336-.352 0-.616.064-.792.192-.176.112-.264.256-.264.432v.048c0 .256.176.464.528.624.368.144.896.32 1.584.528.64.176 1.24.376 1.8.6.56.208 1.048.472 1.464.792.416.304.744.68.984 1.128.24.448.36.984.36 1.608v.048c0 .72-.128 1.352-.384 1.896a3.826 3.826 0 0 1-1.08 1.344c-.464.368-1.024.64-1.68.816a7.668 7.668 0 0 1-2.16.288ZM135.881 5.7h4.92l2.928 9.72 3.24-9.768h4.008l3.24 9.768 2.928-9.72h4.824l-5.616 16.92h-4.056l-3.384-9.672-3.36 9.672h-4.056L135.881 5.7Zm33.029 14.232c.672 0 1.216-.192 1.632-.576.416-.384.624-.904.624-1.56v-.6a4.162 4.162 0 0 0-.816-.24 4.65 4.65 0 0 0-.96-.096c-.672 0-1.192.152-1.56.456-.352.288-.528.672-.528 1.152v.048c0 .448.152.8.456 1.056.304.24.688.36 1.152.36Zm-1.632 2.856c-.624 0-1.2-.088-1.728-.264a4.21 4.21 0 0 1-1.392-.768 3.603 3.603 0 0 1-.912-1.248c-.224-.496-.336-1.072-.336-1.728v-.048c0-.672.12-1.264.36-1.776.256-.512.6-.936 1.032-1.272a4.84 4.84 0 0 1 1.608-.768 7.685 7.685 0 0 1 2.088-.264c.608 0 1.184.056 1.728.168a8.91 8.91 0 0 1 1.392.336v-.216c0-.672-.216-1.192-.648-1.56-.416-.368-1.064-.552-1.944-.552-.688 0-1.312.064-1.872.192a12.21 12.21 0 0 0-1.704.528l-.936-3.216a13.59 13.59 0 0 1 2.328-.72c.832-.192 1.808-.288 2.928-.288 1.168 0 2.152.136 2.952.408.816.272 1.48.664 1.992 1.176.496.48.848 1.064 1.056 1.752.224.672.336 1.464.336 2.376V22.5h-4.512v-1.344a5.226 5.226 0 0 1-1.608 1.2c-.608.288-1.344.432-2.208.432Zm9.663-13.272h4.8l2.496 7.584 2.496-7.584h4.728l-5.184 13.08h-4.152l-5.184-13.08Zm24.288 5.424c-.08-.72-.32-1.288-.72-1.704-.4-.432-.912-.648-1.536-.648-.608 0-1.104.216-1.488.648-.384.416-.64.984-.768 1.704h4.512Zm-1.872 7.872c-1.024 0-1.96-.16-2.808-.48a7.042 7.042 0 0 1-2.208-1.368 6.449 6.449 0 0 1-1.44-2.136c-.336-.832-.504-1.752-.504-2.76v-.048c0-.944.16-1.824.48-2.64a6.488 6.488 0 0 1 1.344-2.16 6.4 6.4 0 0 1 2.088-1.464c.8-.352 1.68-.528 2.64-.528 1.12 0 2.088.192 2.904.576.832.384 1.512.904 2.04 1.56a6.12 6.12 0 0 1 1.2 2.256c.272.848.408 1.752.408 2.712v.456c0 .16-.008.32-.024.48h-8.688c.176.72.504 1.256.984 1.608.496.352 1.104.528 1.824.528a3.49 3.49 0 0 0 1.488-.312c.464-.208.928-.544 1.392-1.008l2.52 2.088c-.624.8-1.4 1.44-2.328 1.92-.912.48-2.016.72-3.312.72Z"/><defs><clipPath id="a"><path fill="#fff" d="M0 0h37.818v32H0z"/></clipPath></defs></svg>