<svg xmlns="http://www.w3.org/2000/svg" id="Layer_2" viewBox="0 0 165.53 257.6"><defs><style>.cls-1{stroke:#222831;stroke-linecap:round;stroke-linejoin:round;stroke-width:2px;fill:none}.cls-3{stroke-width:0;fill:#222831}</style></defs><g id="DUO-Illustrations"><path d="M28.95 249.4s9.83 1.01 20.47-4.89c2.05-1.14 3.2 2.64 3.2 4.19 0 4.68-10.27 8.9-23 8.9s-23.07-3.8-23.07-8.48c0-1.64.92-4.6 3.47-4.47.21.01 2.43 6.36 18.93 4.76Z" class="cls-3"/><path d="M1.02 194.07s9.04 50.64 8.87 50.46c-.17-.17 1.36 5.57 23.39 4.99 0 0 10.39.11 17.45-5.89.31-.26.5-.63.56-1.02l6.72-48.17M31.2 188.9c.93 0-.29 0 0 0 3.96.04 7.15.17 10.52.47.56.05-.54-.06 0 0" class="cls-1"/><path d="m41.88 189.39 3.81.39.38.04c7.44.89 11.93 2.34 11.93 4.02 0 2.73-12.77 4.94-28.51 4.94s-28.5-2.21-28.5-4.94c0-1.83 5.76-3.43 14.31-4.29h0m15.9-.65H27c-.82.01-5.17.15-7.55.31 0 0 .71-.06 0 0" class="cls-1"/><path d="M41.27 173.36c-6.25 2.04-12.7-.52-12.7-.52s3.69-5.88 9.94-7.92 12.7.52 12.7.52-3.69 5.88-9.94 7.92Zm8.35-23.18c-4.95 4.33-11.89 4.5-11.89 4.5s1.09-6.85 6.04-11.18 11.89-4.5 11.89-4.5-1.09 6.85-6.04 11.18Zm-30.36 20.01c5.87 2.98 8.62 9.34 8.62 9.34s-6.76 1.55-12.63-1.43c-5.87-2.98-8.62-9.34-8.62-9.34s6.76-1.55 12.63 1.43Zm9.24-20.06c4.9 4.39 5.91 11.26 5.91 11.26s-6.93-.26-11.83-4.65-5.91-11.26-5.91-11.26 6.93.26 11.83 4.65Z" class="cls-3"/><path d="M33.23 130.2s6.44 10.92 2.16 24.83c-1.05 3.42-2.66 6.29-4.55 8.55-2.99 3.57-8.99 13.74-5.03 35.2H32s-3.94-5.36-3.23-16.02c.4-5.98 2.18-11.51 4.89-15.6 4.6-6.93 13.3-23.84-.43-36.96Z" class="cls-3"/><path d="m19.45 189.21-4.14.34" class="cls-1"/><path d="M1 0h164.53v257.6H1z" style="stroke-width:0;fill:none"/></g></svg>