<svg xmlns="http://www.w3.org/2000/svg" width="209" height="40" fill="none"><g clip-path="url(#a)"><path fill="#222831" d="M39.945 21.5H32.8c-6.24 0-11.3 5.059-11.3 11.3v7.144c9.85-.73 17.715-8.594 18.445-18.444ZM18.5 39.944V32.8c0-6.241-5.059-11.3-11.3-11.3H.056C.786 31.35 8.65 39.214 18.5 39.944ZM39.945 18.5C39.215 8.65 31.35.786 21.5.055V7.2c0 6.24 5.06 11.3 11.3 11.3h7.145ZM18.5.055C8.65.785.786 8.65.056 18.5H7.2c6.241 0 11.3-5.06 11.3-11.3V.055Z"/><path fill="#7A71EB" d="M13.583 20A14.362 14.362 0 0 0 20 13.582 14.362 14.362 0 0 0 26.418 20 14.361 14.361 0 0 0 20 26.417 14.361 14.361 0 0 0 13.583 20Z"/></g><path fill="#222831" d="M64.352 18.052c.832 0 1.48-.192 1.944-.576.48-.4.72-.936.72-1.608v-.048c0-.72-.24-1.264-.72-1.632-.464-.384-1.12-.576-1.968-.576h-2.184v4.44h2.208ZM57.488 9.7h7.2c1.056 0 2.016.136 2.88.408.864.256 1.6.64 2.208 1.152a4.835 4.835 0 0 1 1.392 1.848c.336.736.504 1.568.504 2.496v.048c0 .992-.184 1.864-.552 2.616a5.237 5.237 0 0 1-1.488 1.896c-.64.512-1.408.896-2.304 1.152-.88.256-1.84.384-2.88.384h-2.304v4.8h-4.656V9.7Zm22.556 13.248c.416 0 .792-.072 1.128-.216.336-.16.616-.368.84-.624.24-.272.424-.584.552-.936.128-.352.192-.72.192-1.104v-.048c0-.4-.072-.776-.216-1.128a2.462 2.462 0 0 0-.576-.912 2.669 2.669 0 0 0-.864-.648 2.535 2.535 0 0 0-1.104-.24c-.416 0-.792.08-1.128.24a2.397 2.397 0 0 0-.864.624c-.224.256-.4.56-.528.912s-.192.72-.192 1.104v.048c0 .4.064.776.192 1.128.144.352.336.664.576.936.256.256.552.464.888.624.336.16.704.24 1.104.24Zm-.048 3.864c-1.04 0-2-.176-2.88-.528a7.161 7.161 0 0 1-2.256-1.44 6.691 6.691 0 0 1-1.488-2.16 6.533 6.533 0 0 1-.528-2.616v-.048c0-.928.176-1.8.528-2.616a6.662 6.662 0 0 1 1.512-2.16 6.891 6.891 0 0 1 2.28-1.464c.88-.368 1.84-.552 2.88-.552 1.04 0 1.992.184 2.856.552.88.352 1.64.832 2.28 1.44a6.426 6.426 0 0 1 1.488 2.136c.352.816.528 1.688.528 2.616v.048c0 .928-.184 1.808-.552 2.64a6.691 6.691 0 0 1-1.488 2.16 7.439 7.439 0 0 1-2.28 1.464c-.88.352-1.84.528-2.88.528ZM89.218 8.98h4.56V26.5h-4.56V8.98Zm12.452 14.952c.672 0 1.216-.192 1.632-.576.416-.384.624-.904.624-1.56v-.6a4.162 4.162 0 0 0-.816-.24 4.65 4.65 0 0 0-.96-.096c-.672 0-1.192.152-1.56.456-.352.288-.528.672-.528 1.152v.048c0 .448.152.8.456 1.056.304.24.688.36 1.152.36Zm-1.632 2.856c-.624 0-1.2-.088-1.728-.264a4.21 4.21 0 0 1-1.392-.768 3.603 3.603 0 0 1-.912-1.248c-.224-.496-.336-1.072-.336-1.728v-.048c0-.672.12-1.264.36-1.776.256-.512.6-.936 1.032-1.272a4.84 4.84 0 0 1 1.608-.768 7.686 7.686 0 0 1 2.088-.264c.608 0 1.184.056 1.728.168a8.91 8.91 0 0 1 1.392.336v-.216c0-.672-.216-1.192-.648-1.56-.416-.368-1.064-.552-1.944-.552-.688 0-1.312.064-1.872.192a12.21 12.21 0 0 0-1.704.528l-.936-3.216a13.59 13.59 0 0 1 2.328-.72c.832-.192 1.808-.288 2.928-.288 1.168 0 2.152.136 2.952.408.816.272 1.48.664 1.992 1.176.496.48.848 1.064 1.056 1.752.224.672.336 1.464.336 2.376V26.5h-4.512v-1.344a5.226 5.226 0 0 1-1.608 1.2c-.608.288-1.344.432-2.208.432Zm10.647-13.272h4.56v2.616c.368-.88.872-1.584 1.512-2.112s1.504-.768 2.592-.72v4.8h-.384c-1.2 0-2.12.352-2.76 1.056-.64.704-.96 1.808-.96 3.312V26.5h-4.56V13.516Zm17.13 13.272c-1.504 0-2.936-.232-4.296-.696a10.421 10.421 0 0 1-3.576-2.088l2.592-3.096c1.68 1.344 3.496 2.016 5.448 2.016.624 0 1.096-.096 1.416-.288.336-.208.504-.496.504-.864v-.048a.843.843 0 0 0-.12-.456c-.08-.144-.232-.28-.456-.408-.208-.128-.496-.248-.864-.36a11.533 11.533 0 0 0-1.392-.384 34.678 34.678 0 0 1-2.496-.672 8.413 8.413 0 0 1-2.016-.96 4.688 4.688 0 0 1-1.344-1.464c-.32-.592-.48-1.32-.48-2.184v-.048c0-.784.144-1.504.432-2.16a4.981 4.981 0 0 1 1.296-1.704c.576-.48 1.264-.848 2.064-1.104.8-.272 1.704-.408 2.712-.408 1.44 0 2.72.192 3.84.576 1.136.368 2.16.92 3.072 1.656l-2.328 3.288a9.072 9.072 0 0 0-2.376-1.224c-.8-.288-1.576-.432-2.328-.432-.56 0-.984.104-1.272.312-.272.208-.408.464-.408.768v.048c0 .192.04.36.12.504.096.144.248.28.456.408.224.112.52.232.888.36.384.112.864.232 1.44.36.96.208 1.824.456 2.592.744.784.272 1.448.608 1.992 1.008s.96.888 1.248 1.464c.288.56.432 1.232.432 2.016v.048c0 .864-.168 1.632-.504 2.304a4.933 4.933 0 0 1-1.368 1.728c-.592.464-1.304.824-2.136 1.08-.832.24-1.76.36-2.784.36Zm13.952-.024c-1.376 0-2.448-.328-3.216-.984-.768-.656-1.152-1.76-1.152-3.312v-5.28h-1.536v-3.672h1.536v-3.288h4.56v3.288h3.024v3.672h-3.024v4.392c0 .464.104.8.312 1.008.208.192.52.288.936.288.304 0 .6-.04.888-.12.288-.08.568-.184.84-.312v3.576c-.416.224-.888.4-1.416.528a6.651 6.651 0 0 1-1.752.216Zm10.528-2.832c.672 0 1.216-.192 1.632-.576.416-.384.624-.904.624-1.56v-.6a4.162 4.162 0 0 0-.816-.24 4.65 4.65 0 0 0-.96-.096c-.672 0-1.192.152-1.56.456-.352.288-.528.672-.528 1.152v.048c0 .448.152.8.456 1.056.304.24.688.36 1.152.36Zm-1.632 2.856c-.624 0-1.2-.088-1.728-.264a4.21 4.21 0 0 1-1.392-.768 3.603 3.603 0 0 1-.912-1.248c-.224-.496-.336-1.072-.336-1.728v-.048c0-.672.12-1.264.36-1.776.256-.512.6-.936 1.032-1.272a4.84 4.84 0 0 1 1.608-.768 7.685 7.685 0 0 1 2.088-.264c.608 0 1.184.056 1.728.168a8.91 8.91 0 0 1 1.392.336v-.216c0-.672-.216-1.192-.648-1.56-.416-.368-1.064-.552-1.944-.552-.688 0-1.312.064-1.872.192a12.21 12.21 0 0 0-1.704.528l-.936-3.216a13.59 13.59 0 0 1 2.328-.72c.832-.192 1.808-.288 2.928-.288 1.168 0 2.152.136 2.952.408.816.272 1.48.664 1.992 1.176.496.48.848 1.064 1.056 1.752.224.672.336 1.464.336 2.376V26.5h-4.512v-1.344a5.226 5.226 0 0 1-1.608 1.2c-.608.288-1.344.432-2.208.432Zm10.647-13.272h4.56v2.616c.368-.88.872-1.584 1.512-2.112s1.504-.768 2.592-.72v4.8h-.384c-1.2 0-2.12.352-2.76 1.056-.64.704-.96 1.808-.96 3.312V26.5h-4.56V13.516Z"/><path fill="#7A71EB" d="M171.84 9.7h4.656v6.288h5.976V9.7h4.656v16.8h-4.656v-6.384h-5.976V26.5h-4.656V9.7Zm26.753 13.008a4.73 4.73 0 0 0 1.704-.312l-2.328-1.992 2.352-2.64 2.28 2.064c.192-.496.288-1.04.288-1.632v-.048c0-.608-.104-1.184-.312-1.728a4.382 4.382 0 0 0-.888-1.464 3.995 3.995 0 0 0-1.392-1.008 3.962 3.962 0 0 0-1.752-.384c-.64 0-1.224.128-1.752.384a4.29 4.29 0 0 0-1.344.984 4.667 4.667 0 0 0-.864 1.44 5.154 5.154 0 0 0-.288 1.728v.048c0 .608.104 1.192.312 1.752.208.544.496 1.024.864 1.44.384.416.84.752 1.368 1.008.528.24 1.112.36 1.752.36Zm5.064 2.64a9.787 9.787 0 0 1-2.376 1.104 9.582 9.582 0 0 1-2.736.384c-1.296 0-2.496-.224-3.6-.672a9.03 9.03 0 0 1-2.856-1.872 8.753 8.753 0 0 1-1.896-2.76 8.574 8.574 0 0 1-.672-3.384V18.1c0-1.2.224-2.328.672-3.384a8.495 8.495 0 0 1 1.92-2.784 8.783 8.783 0 0 1 2.88-1.872c1.104-.464 2.304-.696 3.6-.696 1.296 0 2.496.232 3.6.696a8.706 8.706 0 0 1 2.856 1.848 8.433 8.433 0 0 1 1.872 2.76 8.319 8.319 0 0 1 .696 3.384v.048c0 .896-.128 1.752-.384 2.568a8.215 8.215 0 0 1-1.104 2.256l1.728 1.464-2.352 2.616-1.848-1.656Z"/><defs><clipPath id="a"><path fill="#fff" d="M0 0h40v40H0z"/></clipPath></defs></svg>