<svg xmlns="http://www.w3.org/2000/svg" width="203" height="28" fill="none"><g clip-path="url(#a)"><path fill="#222831" fill-rule="evenodd" d="M9.986 4.115 0 14a28.268 28.268 0 0 0 6.767 4.947A13.935 13.935 0 0 0 10 23.9c5.523 5.467 14.477 5.467 20 0a13.934 13.934 0 0 0 3.233-4.953A28.265 28.265 0 0 0 40 14l-9.978-9.877A4.247 4.247 0 0 0 30 4.1c-5.523-5.468-14.477-5.468-20 0l-.014.014ZM29.045 20.73a28.547 28.547 0 0 1-18.09 0c.316.414.664.811 1.045 1.189 4.418 4.373 11.582 4.373 16 0 .381-.378.73-.775 1.044-1.19ZM12.204 5.882a14.267 14.267 0 0 0 15.59 0c-4.363-4.11-11.227-4.11-15.59 0Z" clip-rule="evenodd"/></g><path fill="#222831" d="M64.088 20.788c-1.504 0-2.936-.232-4.296-.696a10.421 10.421 0 0 1-3.576-2.088l2.592-3.096c1.68 1.344 3.496 2.016 5.448 2.016.624 0 1.096-.096 1.416-.288.336-.208.504-.496.504-.864v-.048a.843.843 0 0 0-.12-.456c-.08-.144-.232-.28-.456-.408-.208-.128-.496-.248-.864-.36a11.533 11.533 0 0 0-1.392-.384 34.678 34.678 0 0 1-2.496-.672 8.413 8.413 0 0 1-2.016-.96 4.688 4.688 0 0 1-1.344-1.464c-.32-.592-.48-1.32-.48-2.184v-.048c0-.784.144-1.504.432-2.16a4.981 4.981 0 0 1 1.296-1.704c.576-.48 1.264-.848 2.064-1.104.8-.272 1.704-.408 2.712-.408 1.44 0 2.72.192 3.84.576 1.136.368 2.16.92 3.072 1.656l-2.328 3.288a9.072 9.072 0 0 0-2.376-1.224c-.8-.288-1.576-.432-2.328-.432-.56 0-.984.104-1.272.312-.272.208-.408.464-.408.768v.048c0 .192.04.36.12.504.096.144.248.28.456.408.224.112.52.232.888.36.384.112.864.232 1.44.36.96.208 1.824.456 2.592.744.784.272 1.448.608 1.992 1.008s.96.888 1.248 1.464c.288.56.432 1.232.432 2.016v.048c0 .864-.168 1.632-.504 2.304a4.933 4.933 0 0 1-1.368 1.728c-.592.464-1.304.824-2.136 1.08-.832.24-1.76.36-2.784.36Zm15.464-3.84c.416 0 .792-.072 1.128-.216.336-.16.616-.368.84-.624.24-.272.424-.584.552-.936.128-.352.192-.72.192-1.104v-.048c0-.4-.072-.776-.216-1.128a2.462 2.462 0 0 0-.576-.912 2.669 2.669 0 0 0-.864-.648 2.535 2.535 0 0 0-1.104-.24c-.416 0-.792.08-1.128.24a2.397 2.397 0 0 0-.864.624c-.224.256-.4.56-.528.912s-.192.72-.192 1.104v.048c0 .4.064.776.192 1.128.144.352.336.664.576.936.256.256.552.464.888.624.336.16.704.24 1.104.24Zm-.048 3.864c-1.04 0-2-.176-2.88-.528a7.161 7.161 0 0 1-2.256-1.44 6.691 6.691 0 0 1-1.488-2.16 6.533 6.533 0 0 1-.528-2.616v-.048c0-.928.176-1.8.528-2.616a6.662 6.662 0 0 1 1.512-2.16 6.891 6.891 0 0 1 2.28-1.464c.88-.368 1.84-.552 2.88-.552 1.04 0 1.992.184 2.856.552.88.352 1.64.832 2.28 1.44a6.426 6.426 0 0 1 1.488 2.136c.352.816.528 1.688.528 2.616v.048c0 .928-.184 1.808-.552 2.64a6.691 6.691 0 0 1-1.488 2.16 7.439 7.439 0 0 1-2.28 1.464c-.88.352-1.84.528-2.88.528Zm13.446-.024c-1.392 0-2.48-.424-3.264-1.272-.768-.848-1.152-2.016-1.152-3.504V7.516h4.56v7.032c0 .72.168 1.264.504 1.632.336.368.784.552 1.344.552.544 0 .992-.184 1.344-.552.368-.368.552-.912.552-1.632V7.516h4.56V20.5h-4.56v-1.776a6.43 6.43 0 0 1-1.56 1.44c-.624.416-1.4.624-2.328.624Zm17.155.024c-.976 0-1.88-.176-2.712-.528a7.057 7.057 0 0 1-2.16-1.464 7.009 7.009 0 0 1-1.416-2.136 6.92 6.92 0 0 1-.504-2.616v-.048c0-.912.168-1.776.504-2.592a6.723 6.723 0 0 1 1.44-2.16 6.475 6.475 0 0 1 2.184-1.464c.864-.368 1.808-.552 2.832-.552 1.344 0 2.464.264 3.36.792a6.414 6.414 0 0 1 2.184 2.112l-3.096 2.304c-.32-.432-.664-.768-1.032-1.008s-.832-.36-1.392-.36c-.368 0-.712.08-1.032.24a2.286 2.286 0 0 0-.792.624c-.224.256-.4.56-.528.912a3.077 3.077 0 0 0-.192 1.104v.048c0 .416.064.808.192 1.176.128.352.304.664.528.936.224.256.496.464.816.624.32.144.672.216 1.056.216.544 0 1-.12 1.368-.36a5.23 5.23 0 0 0 1.128-.984l3.048 2.208a7.164 7.164 0 0 1-2.28 2.16c-.912.544-2.08.816-3.504.816Zm15.704-7.872c-.08-.72-.32-1.288-.72-1.704-.4-.432-.912-.648-1.536-.648-.608 0-1.104.216-1.488.648-.384.416-.64.984-.768 1.704h4.512Zm-1.872 7.872c-1.024 0-1.96-.16-2.808-.48a7.042 7.042 0 0 1-2.208-1.368 6.449 6.449 0 0 1-1.44-2.136c-.336-.832-.504-1.752-.504-2.76v-.048c0-.944.16-1.824.48-2.64a6.488 6.488 0 0 1 1.344-2.16 6.4 6.4 0 0 1 2.088-1.464c.8-.352 1.68-.528 2.64-.528 1.12 0 2.088.192 2.904.576.832.384 1.512.904 2.04 1.56a6.12 6.12 0 0 1 1.2 2.256c.272.848.408 1.752.408 2.712v.456c0 .16-.008.32-.024.48h-8.688c.176.72.504 1.256.984 1.608.496.352 1.104.528 1.824.528a3.49 3.49 0 0 0 1.488-.312c.464-.208.928-.544 1.392-1.008l2.52 2.088c-.624.8-1.4 1.44-2.328 1.92-.912.48-2.016.72-3.312.72Zm8.1-13.296h4.56v2.616c.368-.88.872-1.584 1.512-2.112s1.504-.768 2.592-.72v4.8h-.384c-1.2 0-2.12.352-2.76 1.056-.64.704-.96 1.808-.96 3.312V20.5h-4.56V7.516Zm24.049 4.536c.832 0 1.48-.192 1.944-.576.48-.4.72-.936.72-1.608V9.82c0-.72-.24-1.264-.72-1.632-.464-.384-1.12-.576-1.968-.576h-2.184v4.44h2.208ZM149.222 3.7h7.2c1.056 0 2.016.136 2.88.408.864.256 1.6.64 2.208 1.152a4.835 4.835 0 0 1 1.392 1.848c.336.736.504 1.568.504 2.496v.048c0 .992-.184 1.864-.552 2.616a5.237 5.237 0 0 1-1.488 1.896c-.64.512-1.408.896-2.304 1.152-.88.256-1.84.384-2.88.384h-2.304v4.8h-4.656V3.7Zm21.237 14.232c.672 0 1.216-.192 1.632-.576.416-.384.624-.904.624-1.56v-.6a4.162 4.162 0 0 0-.816-.24 4.65 4.65 0 0 0-.96-.096c-.672 0-1.192.152-1.56.456-.352.288-.528.672-.528 1.152v.048c0 .448.152.8.456 1.056.304.24.688.36 1.152.36Zm-1.632 2.856c-.624 0-1.2-.088-1.728-.264a4.21 4.21 0 0 1-1.392-.768 3.603 3.603 0 0 1-.912-1.248c-.224-.496-.336-1.072-.336-1.728v-.048c0-.672.12-1.264.36-1.776.256-.512.6-.936 1.032-1.272a4.84 4.84 0 0 1 1.608-.768 7.685 7.685 0 0 1 2.088-.264c.608 0 1.184.056 1.728.168a8.91 8.91 0 0 1 1.392.336v-.216c0-.672-.216-1.192-.648-1.56-.416-.368-1.064-.552-1.944-.552-.688 0-1.312.064-1.872.192a12.21 12.21 0 0 0-1.704.528l-.936-3.216a13.59 13.59 0 0 1 2.328-.72c.832-.192 1.808-.288 2.928-.288 1.168 0 2.152.136 2.952.408.816.272 1.48.664 1.992 1.176.496.48.848 1.064 1.056 1.752.224.672.336 1.464.336 2.376V20.5h-4.512v-1.344a5.226 5.226 0 0 1-1.608 1.2c-.608.288-1.344.432-2.208.432Zm15.807 0c-1.104 0-2.176-.152-3.216-.456a10.05 10.05 0 0 1-2.928-1.464l1.704-2.76a9.741 9.741 0 0 0 2.28 1.128c.784.24 1.512.36 2.184.36.768 0 1.152-.232 1.152-.696v-.048c0-.256-.176-.456-.528-.6-.352-.144-.872-.312-1.56-.504-.64-.16-1.24-.344-1.8-.552a6.665 6.665 0 0 1-1.464-.792 3.567 3.567 0 0 1-.984-1.152c-.24-.448-.36-1-.36-1.656v-.048c0-.688.128-1.296.384-1.824.272-.544.64-.992 1.104-1.344a4.929 4.929 0 0 1 1.632-.84 7.238 7.238 0 0 1 2.088-.288c.96 0 1.904.136 2.832.408a9.197 9.197 0 0 1 2.52 1.104l-1.56 2.88a10.68 10.68 0 0 0-2.04-.864c-.688-.224-1.288-.336-1.8-.336-.352 0-.616.064-.792.192-.176.112-.264.256-.264.432v.048c0 .256.176.464.528.624.368.144.896.32 1.584.528.64.176 1.24.376 1.8.6.56.208 1.048.472 1.464.792.416.304.744.68.984 1.128.24.448.36.984.36 1.608v.048c0 .72-.128 1.352-.384 1.896a3.826 3.826 0 0 1-1.08 1.344c-.464.368-1.024.64-1.68.816a7.668 7.668 0 0 1-2.16.288Zm12.328 0c-1.104 0-2.176-.152-3.216-.456a10.05 10.05 0 0 1-2.928-1.464l1.704-2.76a9.741 9.741 0 0 0 2.28 1.128c.784.24 1.512.36 2.184.36.768 0 1.152-.232 1.152-.696v-.048c0-.256-.176-.456-.528-.6-.352-.144-.872-.312-1.56-.504-.64-.16-1.24-.344-1.8-.552a6.665 6.665 0 0 1-1.464-.792 3.567 3.567 0 0 1-.984-1.152c-.24-.448-.36-1-.36-1.656v-.048c0-.688.128-1.296.384-1.824.272-.544.64-.992 1.104-1.344a4.929 4.929 0 0 1 1.632-.84 7.238 7.238 0 0 1 2.088-.288c.96 0 1.904.136 2.832.408a9.197 9.197 0 0 1 2.52 1.104l-1.56 2.88a10.68 10.68 0 0 0-2.04-.864c-.688-.224-1.288-.336-1.8-.336-.352 0-.616.064-.792.192-.176.112-.264.256-.264.432v.048c0 .256.176.464.528.624.368.144.896.32 1.584.528.64.176 1.24.376 1.8.6.56.208 1.048.472 1.464.792.416.304.744.68.984 1.128.24.448.36.984.36 1.608v.048c0 .72-.128 1.352-.384 1.896a3.826 3.826 0 0 1-1.08 1.344c-.464.368-1.024.64-1.68.816a7.668 7.668 0 0 1-2.16.288Z"/><defs><clipPath id="a"><path fill="#fff" d="M0 0h40v28H0z"/></clipPath></defs></svg>