<svg xmlns="http://www.w3.org/2000/svg" width="185" height="32" fill="none"><g fill="#212326" clip-path="url(#a)"><path d="M45 1a1 1 0 0 0 1 1h1a1 1 0 1 0 0-2h-1a1 1 0 0 0-1 1ZM16 32h4.858l-1.414-1.414A2 2 0 0 0 18.029 30H16C8.268 30 2 23.732 2 16S8.268 2 16 2h16c7.732 0 14 6.268 14 14s-6.268 14-14 14h-5.985a3 3 0 0 1-2.122-.879l-1.656-1.656A5 5 0 0 0 18.7 26H16c-5.523 0-10-4.477-10-10S10.477 6 16 6h16c5.523 0 10 4.477 10 10s-4.477 10-10 10h-3.843a3 3 0 0 1-2.122-.879l-1.656-1.656A5 5 0 0 0 20.843 22H16a6 6 0 0 1 0-12h16a6 6 0 0 1 .121 11.999V22h-1.464a3 3 0 0 1-2.122-.879l-1.656-1.656a4.999 4.999 0 0 0-2.829-1.415L24 18h-8a2 2 0 1 1 0-4h16a2 2 0 1 1 0 4h-4l1.414 1.414a2 2 0 0 0 1.414.586H32a4 4 0 0 0 0-8H16a4 4 0 0 0 0 8h7.343a3 3 0 0 1 2.122.879l1.656 1.656A5 5 0 0 0 30.657 24H32.5v-.015A8 8 0 0 0 32 8H16a8 8 0 0 0 0 16h4.843a3 3 0 0 1 2.122.879l1.656 1.656A5 5 0 0 0 28.157 28H32c6.627 0 12-5.373 12-12S38.627 4 32 4H16C9.373 4 4 9.373 4 16s5.373 12 12 12h2.701a3 3 0 0 1 2.121.879l1.657 1.656A5 5 0 0 0 26.015 32H32c8.837 0 16-7.163 16-16S40.837 0 32 0H16C7.163 0 0 7.163 0 16s7.163 16 16 16Z"/></g><path fill="#000" d="M75.66 9.91c-.103-.865-.518-1.535-1.245-2.012-.728-.478-1.62-.716-2.676-.716-.773 0-1.45.125-2.029.375-.574.25-1.022.594-1.346 1.031a2.472 2.472 0 0 0-.478 1.492c0 .466.111.866.333 1.201.227.33.517.605.87.827a6.23 6.23 0 0 0 1.107.537c.386.136.742.247 1.065.332l1.773.477c.455.12.96.285 1.517.495a7 7 0 0 1 1.61.86c.518.359.944.819 1.28 1.381.335.563.502 1.253.502 2.071 0 .944-.247 1.796-.741 2.557-.489.761-1.205 1.367-2.148 1.816-.938.448-2.077.673-3.418.673-1.25 0-2.332-.202-3.247-.605-.909-.404-1.625-.966-2.147-1.688-.518-.721-.81-1.56-.878-2.514h2.181c.057.66.279 1.204.665 1.636a3.6 3.6 0 0 0 1.483.955c.603.204 1.25.307 1.943.307.807 0 1.532-.131 2.174-.392.642-.267 1.15-.637 1.525-1.108a2.625 2.625 0 0 0 .563-1.67c0-.58-.162-1.052-.486-1.416-.324-.363-.75-.659-1.279-.886a13.557 13.557 0 0 0-1.712-.597l-2.148-.613c-1.364-.392-2.444-.952-3.239-1.68-.795-.726-1.193-1.678-1.193-2.854 0-.977.264-1.83.793-2.557.534-.733 1.25-1.301 2.147-1.705.904-.409 1.912-.613 3.026-.613 1.125 0 2.125.202 3 .605.875.398 1.568.943 2.08 1.636.516.693.79 1.48.817 2.361H75.66Zm11.179 0v1.704h-6.784V9.909h6.784Zm-4.807-3.137h2.011V19.25c0 .568.083.994.247 1.278.17.279.387.466.648.563a2.6 2.6 0 0 0 .844.136c.222 0 .403-.011.545-.034l.341-.068.41 1.807a4.077 4.077 0 0 1-.572.153 4.205 4.205 0 0 1-.929.085 4.048 4.048 0 0 1-1.67-.366 3.318 3.318 0 0 1-1.347-1.116c-.352-.5-.528-1.131-.528-1.892V6.773ZM89.864 23V9.91h1.944v1.976h.136c.239-.647.67-1.173 1.295-1.576a3.813 3.813 0 0 1 2.114-.605c.148 0 .332.002.554.008.222.006.39.014.503.026v2.045a5.948 5.948 0 0 0-.469-.077 4.61 4.61 0 0 0-.758-.06c-.637 0-1.205.134-1.705.401a3.022 3.022 0 0 0-1.176 1.091 2.94 2.94 0 0 0-.426 1.577V23h-2.012Zm14.02.273c-1.261 0-2.349-.279-3.264-.835-.91-.563-1.61-1.347-2.105-2.353-.489-1.011-.733-2.187-.733-3.528 0-1.341.244-2.523.733-3.546.494-1.028 1.182-1.83 2.062-2.403.887-.58 1.921-.87 3.103-.87.682 0 1.355.114 2.02.341a5.014 5.014 0 0 1 1.815 1.108c.545.506.98 1.177 1.304 2.012.324.835.486 1.864.486 3.085v.852H99.214v-1.738h8.045c0-.739-.147-1.398-.443-1.977a3.338 3.338 0 0 0-1.244-1.373c-.534-.335-1.165-.502-1.892-.502-.801 0-1.495.198-2.08.596a3.933 3.933 0 0 0-1.338 1.534 4.508 4.508 0 0 0-.469 2.028v1.16c0 .988.17 1.826.512 2.514.346.682.826 1.201 1.44 1.56.614.352 1.327.528 2.139.528.529 0 1.006-.074 1.432-.222a3.07 3.07 0 0 0 1.117-.681c.312-.307.554-.688.724-1.142l1.943.545a4.301 4.301 0 0 1-1.031 1.738c-.483.495-1.08.881-1.79 1.16-.71.272-1.508.409-2.395.409Zm12.333.034c-.83 0-1.583-.156-2.259-.469a3.88 3.88 0 0 1-1.611-1.372c-.397-.602-.596-1.33-.596-2.182 0-.75.147-1.358.443-1.824a3.12 3.12 0 0 1 1.185-1.108 6.213 6.213 0 0 1 1.636-.596 19.899 19.899 0 0 1 1.815-.324 82.224 82.224 0 0 1 1.935-.23c.5-.057.864-.15 1.091-.281.233-.131.349-.358.349-.682v-.069c0-.84-.23-1.494-.69-1.96-.455-.466-1.145-.699-2.071-.699-.96 0-1.713.21-2.259.631-.545.42-.929.87-1.15 1.347l-1.909-.682c.341-.796.795-1.415 1.363-1.858a5.112 5.112 0 0 1 1.875-.938 7.79 7.79 0 0 1 2.012-.272c.42 0 .903.05 1.449.153a4.63 4.63 0 0 1 1.593.605c.517.307.946.77 1.287 1.39.341.619.512 1.448.512 2.488V23h-2.012v-1.773h-.102c-.136.284-.364.588-.682.912-.318.324-.741.6-1.27.827-.528.227-1.173.34-1.934.34Zm.306-1.807c.796 0 1.466-.156 2.012-.469.551-.312.966-.716 1.244-1.21a3.085 3.085 0 0 0 .426-1.56v-1.84c-.085.102-.272.195-.562.28-.284.08-.614.151-.989.214-.369.057-.73.108-1.082.153-.347.04-.628.074-.844.102a7.682 7.682 0 0 0-1.466.333c-.449.148-.812.372-1.091.673-.273.296-.409.699-.409 1.21 0 .7.259 1.228.776 1.586.522.352 1.184.528 1.985.528Zm9.365 1.5V9.91h1.943v2.044h.17a3.291 3.291 0 0 1 1.321-1.627c.608-.392 1.339-.588 2.191-.588.863 0 1.582.196 2.156.588.58.386 1.031.929 1.355 1.627h.137a3.813 3.813 0 0 1 1.508-1.61c.67-.404 1.474-.605 2.412-.605 1.17 0 2.128.366 2.872 1.1.744.726 1.117 1.86 1.117 3.4V23h-2.012v-8.761c0-.966-.264-1.657-.792-2.071-.529-.415-1.151-.622-1.867-.622-.92 0-1.633.278-2.139.835-.506.55-.759 1.25-.759 2.096V23h-2.045v-8.966c0-.744-.242-1.344-.724-1.798-.483-.46-1.106-.69-1.867-.69-.523 0-1.011.139-1.466.417a3.157 3.157 0 0 0-1.091 1.16c-.272.488-.409 1.053-.409 1.695V23h-2.011Zm22.871-17.455V23h-2.012V5.545h2.012ZM152.442 23V9.91h2.012V23h-2.012Zm1.023-15.273a1.43 1.43 0 0 1-1.014-.4 1.289 1.289 0 0 1-.418-.963c0-.375.14-.696.418-.963A1.43 1.43 0 0 1 153.465 5c.392 0 .727.134 1.006.4.284.268.426.589.426.964s-.142.696-.426.963c-.279.267-.614.4-1.006.4Zm6.684 7.398V23h-2.011V9.91h1.943v2.044h.17a3.74 3.74 0 0 1 1.398-1.602c.625-.409 1.432-.613 2.421-.613.886 0 1.662.181 2.326.545.665.358 1.182.903 1.551 1.636.37.728.554 1.648.554 2.762V23h-2.011v-8.182c0-1.028-.267-1.83-.801-2.403-.534-.58-1.267-.87-2.199-.87-.642 0-1.216.14-1.722.418-.5.279-.894.685-1.184 1.219-.29.534-.435 1.182-.435 1.943Zm17.516 8.148c-1.261 0-2.349-.279-3.264-.835-.909-.563-1.611-1.347-2.105-2.353-.488-1.011-.733-2.187-.733-3.528 0-1.341.245-2.523.733-3.546.494-1.028 1.182-1.83 2.063-2.403.886-.58 1.92-.87 3.102-.87.682 0 1.355.114 2.02.341.665.228 1.27.597 1.815 1.108.546.506.98 1.177 1.304 2.012.324.835.486 1.864.486 3.085v.852h-10.091v-1.738h8.045c0-.739-.147-1.398-.443-1.977a3.332 3.332 0 0 0-1.244-1.373c-.534-.335-1.165-.502-1.892-.502-.801 0-1.494.198-2.08.596a3.933 3.933 0 0 0-1.338 1.534 4.513 4.513 0 0 0-.468 2.028v1.16c0 .988.17 1.826.511 2.514.347.682.827 1.201 1.44 1.56.614.352 1.327.528 2.139.528.529 0 1.006-.074 1.432-.222a3.07 3.07 0 0 0 1.117-.681c.312-.307.554-.688.724-1.142l1.943.545a4.301 4.301 0 0 1-1.031 1.738 5.02 5.02 0 0 1-1.79 1.16c-.71.272-1.508.409-2.395.409Z"/><defs><clipPath id="a"><path fill="#fff" d="M0 0h48v32H0z"/></clipPath></defs></svg>